<?xml version="1.0" encoding="UTF-8" standalone="no"?>
<svg
   version="1.1"
   id="svg2"
   xml:space="preserve"
   width="1000.0015mm"
   height="750mm"
   viewBox="0 0 3779.533 2834.6456"
   sodipodi:docname="logoWG2026-new.svg"
   inkscape:version="1.4 (e7c3feb1, 2024-10-09)"
   inkscape:export-filename="logoWG2026-new.png"
   inkscape:export-xdpi="5.0799999"
   inkscape:export-ydpi="5.0799999"
   xmlns:inkscape="http://www.inkscape.org/namespaces/inkscape"
   xmlns:sodipodi="http://sodipodi.sourceforge.net/DTD/sodipodi-0.dtd"
   xmlns="http://www.w3.org/2000/svg"
   xmlns:svg="http://www.w3.org/2000/svg"
   xmlns:rdf="http://www.w3.org/1999/02/22-rdf-syntax-ns#"
   xmlns:cc="http://creativecommons.org/ns#"
   xmlns:dc="http://purl.org/dc/elements/1.1/"><metadata
     id="metadata8"><rdf:RDF><cc:Work
         rdf:about=""><dc:format>image/svg+xml</dc:format><dc:type
           rdf:resource="http://purl.org/dc/dcmitype/StillImage" /><dc:title /></cc:Work></rdf:RDF></metadata><defs
     id="defs6"><clipPath
       clipPathUnits="userSpaceOnUse"
       id="clipPath18"><path
         d="M 0,2485.43 H 2834.646 V 0 H 0 Z"
         id="path16" /></clipPath></defs><sodipodi:namedview
     pagecolor="#ffffff"
     bordercolor="#666666"
     borderopacity="1"
     objecttolerance="10"
     gridtolerance="10"
     guidetolerance="10"
     inkscape:pageopacity="0"
     inkscape:pageshadow="2"
     inkscape:window-width="2136"
     inkscape:window-height="1186"
     id="namedview4"
     showgrid="false"
     inkscape:zoom="0.3550703"
     inkscape:cx="1951.7262"
     inkscape:cy="1744.7249"
     inkscape:window-x="0"
     inkscape:window-y="25"
     inkscape:window-maximized="0"
     inkscape:current-layer="g1217"
     inkscape:document-rotation="0"
     units="mm"
     inkscape:showpageshadow="2"
     inkscape:pagecheckerboard="0"
     inkscape:deskcolor="#d1d1d1"
     inkscape:document-units="mm" /><g
     id="g10"
     inkscape:groupmode="layer"
     inkscape:label="logo_color 2019"
     transform="matrix(1.3333333,0,0,-1.3333333,0,3313.9067)"><g
       id="g12"><g
         id="g1217"
         transform="translate(32.261283,175.0182)"><text
   transform="scale(0.93153644,-1.0734953)"
   style="font-variant:normal;font-weight:normal;font-stretch:normal;font-size:1049.7px;font-family:'Myriad Pro';-inkscape-font-specification:MyriadPro-Regular;writing-mode:lr-tb;fill:#2d8ca8;fill-opacity:1;fill-rule:nonzero;stroke:none;stroke-width:0.85952"
   id="text42"
   x="189.18513"
   y="-239.97807"><tspan
     x="189.18513"
     y="-239.97807"
     id="tspan40"
     style="stroke-width:0.85952">2</tspan></text>
<g
   id="g44"
   transform="matrix(0.922691,0,0,0.922691,1115.6704,585.24991)"><path
     d="m 0,0 c 0,5.503 -4.46,9.963 -9.963,9.963 -5.502,0 -9.963,-4.46 -9.963,-9.963 0,-5.502 4.461,-9.963 9.963,-9.963 C -4.46,-9.963 0,-5.502 0,0"
     style="fill:#2f8da9;fill-opacity:1;fill-rule:nonzero;stroke:none"
     id="path46"
     inkscape:connector-curvature="0" /></g><g
   id="g48"
   transform="matrix(0.922691,0,0,0.922691,1115.6704,585.24991)"><path
     d="m 0,0 c 0,5.503 -4.46,9.963 -9.963,9.963 -5.502,0 -9.963,-4.46 -9.963,-9.963 0,-5.502 4.461,-9.963 9.963,-9.963 C -4.46,-9.963 0,-5.502 0,0 Z"
     style="fill:none;stroke:#2d8ca8;stroke-width:1;stroke-linecap:butt;stroke-linejoin:miter;stroke-miterlimit:10;stroke-dasharray:none;stroke-opacity:1"
     id="path50"
     inkscape:connector-curvature="0" /></g><g
   id="g52"
   transform="matrix(0.922691,0,0,0.922691,1115.6704,585.24991)"><path
     d="m 0,0 c 0,5.503 -4.46,9.963 -9.963,9.963 -5.502,0 -9.963,-4.46 -9.963,-9.963 0,-5.502 4.461,-9.963 9.963,-9.963 C -4.46,-9.963 0,-5.502 0,0 Z"
     style="fill:none;stroke:#2d8ca8;stroke-width:4.98099995;stroke-linecap:butt;stroke-linejoin:miter;stroke-miterlimit:10;stroke-dasharray:none;stroke-opacity:1"
     id="path54"
     inkscape:connector-curvature="0" /></g><g
   id="g56"
   transform="matrix(0.922691,0,0,0.922691,1201.1455,517.09147)"><path
     d="m 0,0 c 0,5.502 -4.46,9.963 -9.963,9.963 -5.502,0 -9.963,-4.461 -9.963,-9.963 0,-5.502 4.461,-9.963 9.963,-9.963 C -4.46,-9.963 0,-5.502 0,0"
     style="fill:#000000;fill-opacity:1;fill-rule:nonzero;stroke:none"
     id="path58"
     inkscape:connector-curvature="0" /></g><g
   id="g60"
   transform="matrix(0.922691,0,0,0.922691,1201.1455,517.09147)"><path
     d="m 0,0 c 0,5.502 -4.46,9.963 -9.963,9.963 -5.502,0 -9.963,-4.461 -9.963,-9.963 0,-5.502 4.461,-9.963 9.963,-9.963 C -4.46,-9.963 0,-5.502 0,0 Z"
     style="fill:none;stroke:#2d8ca8;stroke-width:1;stroke-linecap:butt;stroke-linejoin:miter;stroke-miterlimit:10;stroke-dasharray:none;stroke-opacity:1"
     id="path62"
     inkscape:connector-curvature="0" /></g><g
   id="g64"
   transform="matrix(0.922691,0,0,0.922691,1201.1455,517.09147)"><path
     d="m 0,0 c 0,5.502 -4.46,9.963 -9.963,9.963 -5.502,0 -9.963,-4.461 -9.963,-9.963 0,-5.502 4.461,-9.963 9.963,-9.963 C -4.46,-9.963 0,-5.502 0,0"
     style="fill:#2f8da9;fill-opacity:1;fill-rule:nonzero;stroke:none"
     id="path66"
     inkscape:connector-curvature="0" /></g><g
   id="g68"
   transform="matrix(0.922691,0,0,0.922691,1201.1455,517.09147)"><path
     d="m 0,0 c 0,5.502 -4.46,9.963 -9.963,9.963 -5.502,0 -9.963,-4.461 -9.963,-9.963 0,-5.502 4.461,-9.963 9.963,-9.963 C -4.46,-9.963 0,-5.502 0,0 Z"
     style="fill:none;stroke:#2d8ca8;stroke-width:4.98099995;stroke-linecap:butt;stroke-linejoin:miter;stroke-miterlimit:10;stroke-dasharray:none;stroke-opacity:1"
     id="path70"
     inkscape:connector-curvature="0" /></g><g
   id="g72"
   transform="matrix(0.922691,0,0,0.922691,1074.7732,884.64637)"><path
     d="m 0,0 c 0,5.502 -4.46,9.963 -9.963,9.963 -5.502,0 -9.963,-4.461 -9.963,-9.963 0,-5.502 4.461,-9.963 9.963,-9.963 C -4.46,-9.963 0,-5.502 0,0"
     style="fill:#2f8da9;fill-opacity:1;fill-rule:nonzero;stroke:none"
     id="path74"
     inkscape:connector-curvature="0" /></g><g
   id="g76"
   transform="matrix(0.922691,0,0,0.922691,1074.7732,884.64637)"><path
     d="m 0,0 c 0,5.502 -4.46,9.963 -9.963,9.963 -5.502,0 -9.963,-4.461 -9.963,-9.963 0,-5.502 4.461,-9.963 9.963,-9.963 C -4.46,-9.963 0,-5.502 0,0 Z"
     style="fill:none;stroke:#2d8ca8;stroke-width:1;stroke-linecap:butt;stroke-linejoin:miter;stroke-miterlimit:10;stroke-dasharray:none;stroke-opacity:1"
     id="path78"
     inkscape:connector-curvature="0" /></g><g
   id="g80"
   transform="matrix(0.922691,0,0,0.922691,1074.7732,884.64637)"><path
     d="m 0,0 c 0,5.502 -4.46,9.963 -9.963,9.963 -5.502,0 -9.963,-4.461 -9.963,-9.963 0,-5.502 4.461,-9.963 9.963,-9.963 C -4.46,-9.963 0,-5.502 0,0 Z"
     style="fill:none;stroke:#2d8ca8;stroke-width:4.98099995;stroke-linecap:butt;stroke-linejoin:miter;stroke-miterlimit:10;stroke-dasharray:none;stroke-opacity:1"
     id="path82"
     inkscape:connector-curvature="0" /></g><g
   id="g84"
   transform="matrix(0.922691,0,0,0.922691,1106.4779,585.24991)"><path
     d="M 0,0 C 122.824,24.475 202.552,143.887 178.078,266.71 153.603,389.533 34.191,469.262 -88.632,444.788 -211.456,420.313 -291.185,300.901 -266.71,178.078 -248.803,88.2 -178.51,17.907 -88.632,0"
     style="fill:none;stroke:#2d8ca8;stroke-width:4.98099995;stroke-linecap:butt;stroke-linejoin:miter;stroke-miterlimit:10;stroke-dasharray:none;stroke-opacity:1"
     id="path86"
     inkscape:connector-curvature="0" /></g><g
   id="g88"
   transform="matrix(0.922691,0,0,0.922691,1125.7659,629.50486)"><path
     d="m 0,0 c 0,5.502 -4.46,9.963 -9.962,9.963 -5.503,0 -9.963,-4.461 -9.963,-9.963 0,-5.502 4.46,-9.963 9.963,-9.963 C -4.46,-9.963 0,-5.502 0,0"
     style="fill:#000000;fill-opacity:1;fill-rule:nonzero;stroke:none"
     id="path90"
     inkscape:connector-curvature="0" /></g><g
   id="g92"
   transform="matrix(0.922691,0,0,0.922691,1125.7659,629.50486)"><path
     d="m 0,0 c 0,5.502 -4.46,9.963 -9.962,9.963 -5.503,0 -9.963,-4.461 -9.963,-9.963 0,-5.502 4.46,-9.963 9.963,-9.963 C -4.46,-9.963 0,-5.502 0,0 Z"
     style="fill:none;stroke:#2d8ca8;stroke-width:1;stroke-linecap:butt;stroke-linejoin:miter;stroke-miterlimit:10;stroke-dasharray:none;stroke-opacity:1"
     id="path94"
     inkscape:connector-curvature="0" /></g><g
   id="g96"
   transform="matrix(0.922691,0,0,0.922691,1125.7659,629.50486)"><path
     d="m 0,0 c 0,5.502 -4.46,9.963 -9.962,9.963 -5.503,0 -9.963,-4.461 -9.963,-9.963 0,-5.502 4.46,-9.963 9.963,-9.963 C -4.46,-9.963 0,-5.502 0,0"
     style="fill:#2f8da9;fill-opacity:1;fill-rule:nonzero;stroke:none"
     id="path98"
     inkscape:connector-curvature="0" /></g><g
   id="g100"
   transform="matrix(0.922691,0,0,0.922691,1125.7659,629.50486)"><path
     d="m 0,0 c 0,5.502 -4.46,9.963 -9.962,9.963 -5.503,0 -9.963,-4.461 -9.963,-9.963 0,-5.502 4.46,-9.963 9.963,-9.963 C -4.46,-9.963 0,-5.502 0,0 Z"
     style="fill:none;stroke:#2d8ca8;stroke-width:4.98099995;stroke-linecap:butt;stroke-linejoin:miter;stroke-miterlimit:10;stroke-dasharray:none;stroke-opacity:1"
     id="path102"
     inkscape:connector-curvature="0" /></g><g
   id="g104"
   transform="matrix(0.922691,0,0,0.922691,1232.3409,653.83805)"><path
     d="m 0,0 c 0,5.503 -4.46,9.963 -9.962,9.963 -5.503,0 -9.963,-4.46 -9.963,-9.963 0,-5.502 4.46,-9.962 9.963,-9.962 C -4.46,-9.962 0,-5.502 0,0"
     style="fill:#000000;fill-opacity:1;fill-rule:nonzero;stroke:none"
     id="path106"
     inkscape:connector-curvature="0" /></g><g
   id="g108"
   transform="matrix(0.922691,0,0,0.922691,1232.3409,653.83805)"><path
     d="m 0,0 c 0,5.503 -4.46,9.963 -9.962,9.963 -5.503,0 -9.963,-4.46 -9.963,-9.963 0,-5.502 4.46,-9.962 9.963,-9.962 C -4.46,-9.962 0,-5.502 0,0 Z"
     style="fill:none;stroke:#2d8ca8;stroke-width:1;stroke-linecap:butt;stroke-linejoin:miter;stroke-miterlimit:10;stroke-dasharray:none;stroke-opacity:1"
     id="path110"
     inkscape:connector-curvature="0" /></g><g
   id="g112"
   transform="matrix(0.922691,0,0,0.922691,1232.3409,653.83805)"><path
     d="m 0,0 c 0,5.503 -4.46,9.963 -9.962,9.963 -5.503,0 -9.963,-4.46 -9.963,-9.963 0,-5.502 4.46,-9.962 9.963,-9.962 C -4.46,-9.962 0,-5.502 0,0"
     style="fill:#2f8da9;fill-opacity:1;fill-rule:nonzero;stroke:none"
     id="path114"
     inkscape:connector-curvature="0" /></g><g
   id="g116"
   transform="matrix(0.922691,0,0,0.922691,1232.3409,653.83805)"><path
     d="m 0,0 c 0,5.503 -4.46,9.963 -9.962,9.963 -5.503,0 -9.963,-4.46 -9.963,-9.963 0,-5.502 4.46,-9.962 9.963,-9.962 C -4.46,-9.962 0,-5.502 0,0 Z"
     style="fill:none;stroke:#2d8ca8;stroke-width:4.98099995;stroke-linecap:butt;stroke-linejoin:miter;stroke-miterlimit:10;stroke-dasharray:none;stroke-opacity:1"
     id="path118"
     inkscape:connector-curvature="0" /></g><g
   id="g120"
   transform="matrix(0.922691,0,0,0.922691,866.19739,784.18272)"><path
     d="m 0,0 c 0,5.502 -4.46,9.963 -9.963,9.963 -5.502,0 -9.963,-4.461 -9.963,-9.963 0,-5.502 4.461,-9.963 9.963,-9.963 C -4.46,-9.963 0,-5.502 0,0"
     style="fill:#2f8da9;fill-opacity:1;fill-rule:nonzero;stroke:none"
     id="path122"
     inkscape:connector-curvature="0" /></g><g
   id="g124"
   transform="matrix(0.922691,0,0,0.922691,866.19739,784.18272)"><path
     d="m 0,0 c 0,5.502 -4.46,9.963 -9.963,9.963 -5.502,0 -9.963,-4.461 -9.963,-9.963 0,-5.502 4.461,-9.963 9.963,-9.963 C -4.46,-9.963 0,-5.502 0,0 Z"
     style="fill:none;stroke:#2d8ca8;stroke-width:1;stroke-linecap:butt;stroke-linejoin:miter;stroke-miterlimit:10;stroke-dasharray:none;stroke-opacity:1"
     id="path126"
     inkscape:connector-curvature="0" /></g><g
   id="g128"
   transform="matrix(0.922691,0,0,0.922691,866.19739,784.18272)"><path
     d="m 0,0 c 0,5.502 -4.46,9.963 -9.963,9.963 -5.502,0 -9.963,-4.461 -9.963,-9.963 0,-5.502 4.461,-9.963 9.963,-9.963 C -4.46,-9.963 0,-5.502 0,0"
     style="fill:#2f8da9;fill-opacity:1;fill-rule:nonzero;stroke:none"
     id="path130"
     inkscape:connector-curvature="0" /></g><g
   id="g132"
   transform="matrix(0.922691,0,0,0.922691,866.19739,784.18272)"><path
     d="m 0,0 c 0,5.502 -4.46,9.963 -9.963,9.963 -5.502,0 -9.963,-4.461 -9.963,-9.963 0,-5.502 4.461,-9.963 9.963,-9.963 C -4.46,-9.963 0,-5.502 0,0 Z"
     style="fill:none;stroke:#2d8ca8;stroke-width:1;stroke-linecap:butt;stroke-linejoin:miter;stroke-miterlimit:10;stroke-dasharray:none;stroke-opacity:1"
     id="path134"
     inkscape:connector-curvature="0" /></g><g
   id="g136"
   transform="matrix(0.922691,0,0,0.922691,1116.5738,629.50486)"><path
     d="m 0,0 c 57.437,111.283 13.784,248.061 -97.499,305.498 -111.284,57.437 -248.061,13.785 -305.498,-97.499 -57.437,-111.283 -13.785,-248.062 97.499,-305.498 81.432,-42.032 180.209,-30.899 250.242,28.205"
     style="fill:none;stroke:#2d8ca8;stroke-width:4.98099995;stroke-linecap:butt;stroke-linejoin:miter;stroke-miterlimit:10;stroke-dasharray:none;stroke-opacity:1"
     id="path138"
     inkscape:connector-curvature="0" /></g><g
   id="g140"
   transform="matrix(0.922691,0,0,0.922691,1097.4643,664.98969)"><path
     d="m 0,0 c 0,5.503 -4.46,9.963 -9.963,9.963 -5.502,0 -9.962,-4.46 -9.962,-9.963 0,-5.502 4.46,-9.963 9.962,-9.963 C -4.46,-9.963 0,-5.502 0,0"
     style="fill:#000000;fill-opacity:1;fill-rule:nonzero;stroke:none"
     id="path142"
     inkscape:connector-curvature="0" /></g><g
   id="g144"
   transform="matrix(0.922691,0,0,0.922691,1097.4643,664.98969)"><path
     d="m 0,0 c 0,5.503 -4.46,9.963 -9.963,9.963 -5.502,0 -9.962,-4.46 -9.962,-9.963 0,-5.502 4.46,-9.963 9.962,-9.963 C -4.46,-9.963 0,-5.502 0,0 Z"
     style="fill:none;stroke:#2d8ca8;stroke-width:1;stroke-linecap:butt;stroke-linejoin:miter;stroke-miterlimit:10;stroke-dasharray:none;stroke-opacity:1"
     id="path146"
     inkscape:connector-curvature="0" /></g><g
   id="g148"
   transform="matrix(0.922691,0,0,0.922691,1097.4643,664.98969)"><path
     d="m 0,0 c 0,5.503 -4.46,9.963 -9.963,9.963 -5.502,0 -9.962,-4.46 -9.962,-9.963 0,-5.502 4.46,-9.963 9.962,-9.963 C -4.46,-9.963 0,-5.502 0,0"
     style="fill:#2f8da9;fill-opacity:1;fill-rule:nonzero;stroke:none"
     id="path150"
     inkscape:connector-curvature="0" /></g><g
   id="g152"
   transform="matrix(0.922691,0,0,0.922691,1097.4643,664.98969)"><path
     d="m 0,0 c 0,5.503 -4.46,9.963 -9.963,9.963 -5.502,0 -9.962,-4.46 -9.962,-9.963 0,-5.502 4.46,-9.963 9.962,-9.963 C -4.46,-9.963 0,-5.502 0,0 Z"
     style="fill:none;stroke:#2d8ca8;stroke-width:4.98099995;stroke-linecap:butt;stroke-linejoin:miter;stroke-miterlimit:10;stroke-dasharray:none;stroke-opacity:1"
     id="path154"
     inkscape:connector-curvature="0" /></g><g
   id="g156"
   transform="matrix(0.922691,0,0,0.922691,1144.8888,763.48706)"><path
     d="m 0,0 c 0,5.502 -4.46,9.963 -9.963,9.963 -5.502,0 -9.963,-4.461 -9.963,-9.963 0,-5.503 4.461,-9.963 9.963,-9.963 C -4.46,-9.963 0,-5.503 0,0"
     style="fill:#2f8da9;fill-opacity:1;fill-rule:nonzero;stroke:none"
     id="path158"
     inkscape:connector-curvature="0" /></g><g
   id="g160"
   transform="matrix(0.922691,0,0,0.922691,1144.8888,763.48706)"><path
     d="m 0,0 c 0,5.502 -4.46,9.963 -9.963,9.963 -5.502,0 -9.963,-4.461 -9.963,-9.963 0,-5.503 4.461,-9.963 9.963,-9.963 C -4.46,-9.963 0,-5.503 0,0 Z"
     style="fill:none;stroke:#2d8ca8;stroke-width:1;stroke-linecap:butt;stroke-linejoin:miter;stroke-miterlimit:10;stroke-dasharray:none;stroke-opacity:1"
     id="path162"
     inkscape:connector-curvature="0" /></g><g
   id="g164"
   transform="matrix(0.922691,0,0,0.922691,1144.8888,763.48706)"><path
     d="m 0,0 c 0,5.502 -4.46,9.963 -9.963,9.963 -5.502,0 -9.963,-4.461 -9.963,-9.963 0,-5.503 4.461,-9.963 9.963,-9.963 C -4.46,-9.963 0,-5.503 0,0 Z"
     style="fill:none;stroke:#2d8ca8;stroke-width:4.98099995;stroke-linecap:butt;stroke-linejoin:miter;stroke-miterlimit:10;stroke-dasharray:none;stroke-opacity:1"
     id="path166"
     inkscape:connector-curvature="0" /></g><g
   id="g168"
   transform="matrix(0.922691,0,0,0.922691,814.68929,558.48911)"><path
     d="m 0,0 c 0,5.502 -4.46,9.963 -9.963,9.963 -5.502,0 -9.963,-4.461 -9.963,-9.963 0,-5.502 4.461,-9.963 9.963,-9.963 C -4.46,-9.963 0,-5.502 0,0"
     style="fill:#2f8da9;fill-opacity:1;fill-rule:nonzero;stroke:none"
     id="path170"
     inkscape:connector-curvature="0" /></g><g
   id="g172"
   transform="matrix(0.922691,0,0,0.922691,814.68929,558.48911)"><path
     d="m 0,0 c 0,5.502 -4.46,9.963 -9.963,9.963 -5.502,0 -9.963,-4.461 -9.963,-9.963 0,-5.502 4.461,-9.963 9.963,-9.963 C -4.46,-9.963 0,-5.502 0,0 Z"
     style="fill:none;stroke:#2d8ca8;stroke-width:1;stroke-linecap:butt;stroke-linejoin:miter;stroke-miterlimit:10;stroke-dasharray:none;stroke-opacity:1"
     id="path174"
     inkscape:connector-curvature="0" /></g><g
   id="g176"
   transform="matrix(0.922691,0,0,0.922691,814.68929,558.48911)"><path
     d="m 0,0 c 0,5.502 -4.46,9.963 -9.963,9.963 -5.502,0 -9.963,-4.461 -9.963,-9.963 0,-5.502 4.461,-9.963 9.963,-9.963 C -4.46,-9.963 0,-5.502 0,0"
     style="fill:#2f8da9;fill-opacity:1;fill-rule:nonzero;stroke:none"
     id="path178"
     inkscape:connector-curvature="0" /></g><g
   id="g180"
   transform="matrix(0.922691,0,0,0.922691,814.68929,558.48911)"><path
     d="m 0,0 c 0,5.502 -4.46,9.963 -9.963,9.963 -5.502,0 -9.963,-4.461 -9.963,-9.963 0,-5.502 4.461,-9.963 9.963,-9.963 C -4.46,-9.963 0,-5.502 0,0 Z"
     style="fill:none;stroke:#2d8ca8;stroke-width:1;stroke-linecap:butt;stroke-linejoin:miter;stroke-miterlimit:10;stroke-dasharray:none;stroke-opacity:1"
     id="path182"
     inkscape:connector-curvature="0" /></g><g
   id="g184"
   transform="matrix(0.922691,0,0,0.922691,1088.2716,664.98969)"><path
     d="m 0,0 c -51.194,114.292 -185.35,165.443 -299.642,114.249 -114.292,-51.194 -165.444,-185.351 -114.249,-299.643 51.194,-114.291 185.35,-165.443 299.642,-114.249 83.636,37.46 136.519,121.631 133.974,213.237"
     style="fill:none;stroke:#2d8ca8;stroke-width:4.98099995;stroke-linecap:butt;stroke-linejoin:miter;stroke-miterlimit:10;stroke-dasharray:none;stroke-opacity:1"
     id="path186"
     inkscape:connector-curvature="0" /></g><g
   id="g188"
   transform="matrix(0.922691,0,0,0.922691,1052.0727,664.98428)"><path
     d="m 0,0 c 0,5.502 -4.46,9.963 -9.962,9.963 -5.503,0 -9.963,-4.461 -9.963,-9.963 0,-5.503 4.46,-9.963 9.963,-9.963 C -4.46,-9.963 0,-5.503 0,0"
     style="fill:#000000;fill-opacity:1;fill-rule:nonzero;stroke:none"
     id="path190"
     inkscape:connector-curvature="0" /></g><g
   id="g192"
   transform="matrix(0.922691,0,0,0.922691,1052.0727,664.98428)"><path
     d="m 0,0 c 0,5.502 -4.46,9.963 -9.962,9.963 -5.503,0 -9.963,-4.461 -9.963,-9.963 0,-5.503 4.46,-9.963 9.963,-9.963 C -4.46,-9.963 0,-5.503 0,0 Z"
     style="fill:none;stroke:#2d8ca8;stroke-width:1;stroke-linecap:butt;stroke-linejoin:miter;stroke-miterlimit:10;stroke-dasharray:none;stroke-opacity:1"
     id="path194"
     inkscape:connector-curvature="0" /></g><g
   id="g196"
   transform="matrix(0.922691,0,0,0.922691,1052.0727,664.98428)"><path
     d="m 0,0 c 0,5.502 -4.46,9.963 -9.962,9.963 -5.503,0 -9.963,-4.461 -9.963,-9.963 0,-5.503 4.46,-9.963 9.963,-9.963 C -4.46,-9.963 0,-5.503 0,0"
     style="fill:#2f8da9;fill-opacity:1;fill-rule:nonzero;stroke:none"
     id="path198"
     inkscape:connector-curvature="0" /></g><g
   id="g200"
   transform="matrix(0.922691,0,0,0.922691,1052.0727,664.98428)"><path
     d="m 0,0 c 0,5.502 -4.46,9.963 -9.962,9.963 -5.503,0 -9.963,-4.461 -9.963,-9.963 0,-5.503 4.46,-9.963 9.963,-9.963 C -4.46,-9.963 0,-5.503 0,0 Z"
     style="fill:none;stroke:#2d8ca8;stroke-width:4.98099995;stroke-linecap:butt;stroke-linejoin:miter;stroke-miterlimit:10;stroke-dasharray:none;stroke-opacity:1"
     id="path202"
     inkscape:connector-curvature="0" /></g><g
   id="g204"
   transform="matrix(0.922691,0,0,0.922691,1004.6293,763.46883)"><path
     d="m 0,0 c 0,5.502 -4.46,9.963 -9.963,9.963 -5.502,0 -9.963,-4.461 -9.963,-9.963 0,-5.502 4.461,-9.963 9.963,-9.963 C -4.46,-9.963 0,-5.502 0,0"
     style="fill:#000000;fill-opacity:1;fill-rule:nonzero;stroke:none"
     id="path206"
     inkscape:connector-curvature="0" /></g><g
   id="g208"
   transform="matrix(0.922691,0,0,0.922691,1004.6293,763.46883)"><path
     d="m 0,0 c 0,5.502 -4.46,9.963 -9.963,9.963 -5.502,0 -9.963,-4.461 -9.963,-9.963 0,-5.502 4.461,-9.963 9.963,-9.963 C -4.46,-9.963 0,-5.502 0,0 Z"
     style="fill:none;stroke:#2d8ca8;stroke-width:1;stroke-linecap:butt;stroke-linejoin:miter;stroke-miterlimit:10;stroke-dasharray:none;stroke-opacity:1"
     id="path210"
     inkscape:connector-curvature="0" /></g><g
   id="g212"
   transform="matrix(0.922691,0,0,0.922691,1004.6293,763.46883)"><path
     d="m 0,0 c 0,5.502 -4.46,9.963 -9.963,9.963 -5.502,0 -9.963,-4.461 -9.963,-9.963 0,-5.502 4.461,-9.963 9.963,-9.963 C -4.46,-9.963 0,-5.502 0,0"
     style="fill:#2f8da9;fill-opacity:1;fill-rule:nonzero;stroke:none"
     id="path214"
     inkscape:connector-curvature="0" /></g><g
   id="g216"
   transform="matrix(0.922691,0,0,0.922691,1004.6293,763.46883)"><path
     d="m 0,0 c 0,5.502 -4.46,9.963 -9.963,9.963 -5.502,0 -9.963,-4.461 -9.963,-9.963 0,-5.502 4.461,-9.963 9.963,-9.963 C -4.46,-9.963 0,-5.502 0,0 Z"
     style="fill:none;stroke:#2d8ca8;stroke-width:4.98099995;stroke-linecap:butt;stroke-linejoin:miter;stroke-miterlimit:10;stroke-dasharray:none;stroke-opacity:1"
     id="path218"
     inkscape:connector-curvature="0" /></g><g
   id="g220"
   transform="matrix(0.922691,0,0,0.922691,959.04799,377.50115)"><path
     d="m 0,0 c 0,5.502 -4.46,9.963 -9.962,9.963 -5.503,0 -9.963,-4.461 -9.963,-9.963 0,-5.502 4.46,-9.963 9.963,-9.963 C -4.46,-9.963 0,-5.502 0,0"
     style="fill:#2f8da9;fill-opacity:1;fill-rule:nonzero;stroke:none"
     id="path222"
     inkscape:connector-curvature="0" /></g><g
   id="g224"
   transform="matrix(0.922691,0,0,0.922691,959.04799,377.50115)"><path
     d="m 0,0 c 0,5.502 -4.46,9.963 -9.962,9.963 -5.503,0 -9.963,-4.461 -9.963,-9.963 0,-5.502 4.46,-9.963 9.963,-9.963 C -4.46,-9.963 0,-5.502 0,0 Z"
     style="fill:none;stroke:#2d8ca8;stroke-width:1;stroke-linecap:butt;stroke-linejoin:miter;stroke-miterlimit:10;stroke-dasharray:none;stroke-opacity:1"
     id="path226"
     inkscape:connector-curvature="0" /></g><g
   id="g228"
   transform="matrix(0.922691,0,0,0.922691,959.04799,377.50115)"><path
     d="m 0,0 c 0,5.502 -4.46,9.963 -9.962,9.963 -5.503,0 -9.963,-4.461 -9.963,-9.963 0,-5.502 4.46,-9.963 9.963,-9.963 C -4.46,-9.963 0,-5.502 0,0 Z"
     style="fill:none;stroke:#2d8ca8;stroke-width:4.98099995;stroke-linecap:butt;stroke-linejoin:miter;stroke-miterlimit:10;stroke-dasharray:none;stroke-opacity:1"
     id="path230"
     inkscape:connector-curvature="0" /></g><g
   id="g232"
   transform="matrix(0.922691,0,0,0.922691,1042.8806,664.98428)"><path
     d="m 0,0 c -121.275,31.228 -244.905,-41.772 -276.133,-163.048 -31.227,-121.275 41.773,-244.905 163.048,-276.133 121.275,-31.226 244.905,41.774 276.132,163.048 22.854,88.744 -9.985,182.566 -83.193,237.687"
     style="fill:none;stroke:#2d8ca8;stroke-width:4.98099995;stroke-linecap:butt;stroke-linejoin:miter;stroke-miterlimit:10;stroke-dasharray:none;stroke-opacity:1"
     id="path234"
     inkscape:connector-curvature="0" /></g><g
   id="g236"
   transform="matrix(0.922691,0,0,0.922691,1023.7779,629.49397)"><path
     d="m 0,0 c 0,5.503 -4.46,9.963 -9.963,9.963 -5.502,0 -9.963,-4.46 -9.963,-9.963 0,-5.502 4.461,-9.963 9.963,-9.963 C -4.46,-9.963 0,-5.502 0,0"
     style="fill:#000000;fill-opacity:1;fill-rule:nonzero;stroke:none"
     id="path238"
     inkscape:connector-curvature="0" /></g><g
   id="g240"
   transform="matrix(0.922691,0,0,0.922691,1023.7779,629.49397)"><path
     d="m 0,0 c 0,5.503 -4.46,9.963 -9.963,9.963 -5.502,0 -9.963,-4.46 -9.963,-9.963 0,-5.502 4.461,-9.963 9.963,-9.963 C -4.46,-9.963 0,-5.502 0,0 Z"
     style="fill:none;stroke:#2d8ca8;stroke-width:1;stroke-linecap:butt;stroke-linejoin:miter;stroke-miterlimit:10;stroke-dasharray:none;stroke-opacity:1"
     id="path242"
     inkscape:connector-curvature="0" /></g><g
   id="g244"
   transform="matrix(0.922691,0,0,0.922691,1023.7779,629.49397)"><path
     d="m 0,0 c 0,5.503 -4.46,9.963 -9.963,9.963 -5.502,0 -9.963,-4.46 -9.963,-9.963 0,-5.502 4.461,-9.963 9.963,-9.963 C -4.46,-9.963 0,-5.502 0,0"
     style="fill:#2f8da9;fill-opacity:1;fill-rule:nonzero;stroke:none"
     id="path246"
     inkscape:connector-curvature="0" /></g><g
   id="g248"
   transform="matrix(0.922691,0,0,0.922691,1023.7779,629.49397)"><path
     d="m 0,0 c 0,5.503 -4.46,9.963 -9.963,9.963 -5.502,0 -9.963,-4.46 -9.963,-9.963 0,-5.502 4.461,-9.963 9.963,-9.963 C -4.46,-9.963 0,-5.502 0,0 Z"
     style="fill:none;stroke:#2d8ca8;stroke-width:4.98099995;stroke-linecap:butt;stroke-linejoin:miter;stroke-miterlimit:10;stroke-dasharray:none;stroke-opacity:1"
     id="path250"
     inkscape:connector-curvature="0" /></g><g
   id="g252"
   transform="matrix(0.922691,0,0,0.922691,917.19799,653.80569)"><path
     d="m 0,0 c 0,5.502 -4.46,9.963 -9.962,9.963 -5.503,0 -9.963,-4.461 -9.963,-9.963 0,-5.503 4.46,-9.963 9.963,-9.963 C -4.46,-9.963 0,-5.503 0,0"
     style="fill:#000000;fill-opacity:1;fill-rule:nonzero;stroke:none"
     id="path254"
     inkscape:connector-curvature="0" /></g><g
   id="g256"
   transform="matrix(0.922691,0,0,0.922691,917.19799,653.80569)"><path
     d="m 0,0 c 0,5.502 -4.46,9.963 -9.962,9.963 -5.503,0 -9.963,-4.461 -9.963,-9.963 0,-5.503 4.46,-9.963 9.963,-9.963 C -4.46,-9.963 0,-5.503 0,0 Z"
     style="fill:none;stroke:#2d8ca8;stroke-width:1;stroke-linecap:butt;stroke-linejoin:miter;stroke-miterlimit:10;stroke-dasharray:none;stroke-opacity:1"
     id="path258"
     inkscape:connector-curvature="0" /></g><g
   id="g260"
   transform="matrix(0.922691,0,0,0.922691,917.19799,653.80569)"><path
     d="m 0,0 c 0,5.502 -4.46,9.963 -9.962,9.963 -5.503,0 -9.963,-4.461 -9.963,-9.963 0,-5.503 4.46,-9.963 9.963,-9.963 C -4.46,-9.963 0,-5.503 0,0"
     style="fill:#2f8da9;fill-opacity:1;fill-rule:nonzero;stroke:none"
     id="path262"
     inkscape:connector-curvature="0" /></g><g
   id="g264"
   transform="matrix(0.922691,0,0,0.922691,917.19799,653.80569)"><path
     d="m 0,0 c 0,5.502 -4.46,9.963 -9.962,9.963 -5.503,0 -9.963,-4.461 -9.963,-9.963 0,-5.503 4.46,-9.963 9.963,-9.963 C -4.46,-9.963 0,-5.503 0,0 Z"
     style="fill:none;stroke:#2d8ca8;stroke-width:4.98099995;stroke-linecap:butt;stroke-linejoin:miter;stroke-miterlimit:10;stroke-dasharray:none;stroke-opacity:1"
     id="path266"
     inkscape:connector-curvature="0" /></g><g
   id="g268"
   transform="matrix(0.922691,0,0,0.922691,1190.5426,377.52192)"><path
     d="m 0,0 c 0,5.502 -4.46,9.962 -9.962,9.962 -5.503,0 -9.963,-4.46 -9.963,-9.962 0,-5.503 4.46,-9.963 9.963,-9.963 C -4.46,-9.963 0,-5.503 0,0"
     style="fill:#000000;fill-opacity:1;fill-rule:nonzero;stroke:none"
     id="path270"
     inkscape:connector-curvature="0" /></g><g
   id="g272"
   transform="matrix(0.922691,0,0,0.922691,1190.5426,377.52192)"><path
     d="m 0,0 c 0,5.502 -4.46,9.962 -9.962,9.962 -5.503,0 -9.963,-4.46 -9.963,-9.962 0,-5.503 4.46,-9.963 9.963,-9.963 C -4.46,-9.963 0,-5.503 0,0 Z"
     style="fill:none;stroke:#2d8ca8;stroke-width:1;stroke-linecap:butt;stroke-linejoin:miter;stroke-miterlimit:10;stroke-dasharray:none;stroke-opacity:1"
     id="path274"
     inkscape:connector-curvature="0" /></g><g
   id="g276"
   transform="matrix(0.922691,0,0,0.922691,1190.5426,377.52192)"><path
     d="m 0,0 c 0,5.502 -4.46,9.962 -9.962,9.962 -5.503,0 -9.963,-4.46 -9.963,-9.962 0,-5.503 4.46,-9.963 9.963,-9.963 C -4.46,-9.963 0,-5.503 0,0"
     style="fill:#2f8da9;fill-opacity:1;fill-rule:nonzero;stroke:none"
     id="path278"
     inkscape:connector-curvature="0" /></g><g
   id="g280"
   transform="matrix(0.922691,0,0,0.922691,1190.5426,377.52192)"><path
     d="m 0,0 c 0,5.502 -4.46,9.962 -9.962,9.962 -5.503,0 -9.963,-4.46 -9.963,-9.962 0,-5.503 4.46,-9.963 9.963,-9.963 C -4.46,-9.963 0,-5.503 0,0 Z"
     style="fill:none;stroke:#2d8ca8;stroke-width:4.98099995;stroke-linecap:butt;stroke-linejoin:miter;stroke-miterlimit:10;stroke-dasharray:none;stroke-opacity:1"
     id="path282"
     inkscape:connector-curvature="0" /></g><g
   id="g284"
   transform="matrix(0.922691,0,0,0.922691,1014.5851,629.49397)"><path
     d="m 0,0 c -100.028,-75.347 -120.036,-217.521 -44.689,-317.549 75.347,-100.028 217.521,-120.036 317.549,-44.689 100.029,75.347 120.037,217.521 44.689,317.55 C 262.415,28.51 168.587,61.332 79.847,38.462"
     style="fill:none;stroke:#2d8ca8;stroke-width:4.98099995;stroke-linecap:butt;stroke-linejoin:miter;stroke-miterlimit:10;stroke-dasharray:none;stroke-opacity:1"
     id="path286"
     inkscape:connector-curvature="0" /></g><g
   id="g288"
   transform="matrix(0.922691,0,0,0.922691,1033.8852,585.24273)"><path
     d="m 0,0 c 0,5.502 -4.46,9.963 -9.963,9.963 -5.502,0 -9.963,-4.461 -9.963,-9.963 0,-5.503 4.461,-9.963 9.963,-9.963 C -4.46,-9.963 0,-5.503 0,0"
     style="fill:#000000;fill-opacity:1;fill-rule:nonzero;stroke:none"
     id="path290"
     inkscape:connector-curvature="0" /></g><g
   id="g292"
   transform="matrix(0.922691,0,0,0.922691,1033.8852,585.24273)"><path
     d="m 0,0 c 0,5.502 -4.46,9.963 -9.963,9.963 -5.502,0 -9.963,-4.461 -9.963,-9.963 0,-5.503 4.461,-9.963 9.963,-9.963 C -4.46,-9.963 0,-5.503 0,0 Z"
     style="fill:none;stroke:#2d8ca8;stroke-width:1;stroke-linecap:butt;stroke-linejoin:miter;stroke-miterlimit:10;stroke-dasharray:none;stroke-opacity:1"
     id="path294"
     inkscape:connector-curvature="0" /></g><g
   id="g296"
   transform="matrix(0.922691,0,0,0.922691,1033.8852,585.24273)"><path
     d="m 0,0 c 0,5.502 -4.46,9.963 -9.963,9.963 -5.502,0 -9.963,-4.461 -9.963,-9.963 0,-5.503 4.461,-9.963 9.963,-9.963 C -4.46,-9.963 0,-5.503 0,0"
     style="fill:#2f8da9;fill-opacity:1;fill-rule:nonzero;stroke:none"
     id="path298"
     inkscape:connector-curvature="0" /></g><g
   id="g300"
   transform="matrix(0.922691,0,0,0.922691,1033.8852,585.24273)"><path
     d="m 0,0 c 0,5.502 -4.46,9.963 -9.963,9.963 -5.502,0 -9.963,-4.461 -9.963,-9.963 0,-5.503 4.461,-9.963 9.963,-9.963 C -4.46,-9.963 0,-5.503 0,0 Z"
     style="fill:none;stroke:#2d8ca8;stroke-width:4.98099995;stroke-linecap:butt;stroke-linejoin:miter;stroke-miterlimit:10;stroke-dasharray:none;stroke-opacity:1"
     id="path302"
     inkscape:connector-curvature="0" /></g><g
   id="g304"
   transform="matrix(0.922691,0,0,0.922691,948.42959,517.06803)"><path
     d="m 0,0 c 0,5.502 -4.46,9.963 -9.962,9.963 -5.503,0 -9.963,-4.461 -9.963,-9.963 0,-5.503 4.46,-9.963 9.963,-9.963 C -4.46,-9.963 0,-5.503 0,0"
     style="fill:#000000;fill-opacity:1;fill-rule:nonzero;stroke:none"
     id="path306"
     inkscape:connector-curvature="0" /></g><g
   id="g308"
   transform="matrix(0.922691,0,0,0.922691,948.42959,517.06803)"><path
     d="m 0,0 c 0,5.502 -4.46,9.963 -9.962,9.963 -5.503,0 -9.963,-4.461 -9.963,-9.963 0,-5.503 4.46,-9.963 9.963,-9.963 C -4.46,-9.963 0,-5.503 0,0 Z"
     style="fill:none;stroke:#2d8ca8;stroke-width:1;stroke-linecap:butt;stroke-linejoin:miter;stroke-miterlimit:10;stroke-dasharray:none;stroke-opacity:1"
     id="path310"
     inkscape:connector-curvature="0" /></g><g
   id="g312"
   transform="matrix(0.922691,0,0,0.922691,948.42959,517.06803)"><path
     d="m 0,0 c 0,5.502 -4.46,9.963 -9.962,9.963 -5.503,0 -9.963,-4.461 -9.963,-9.963 0,-5.503 4.46,-9.963 9.963,-9.963 C -4.46,-9.963 0,-5.503 0,0"
     style="fill:#2f8da9;fill-opacity:1;fill-rule:nonzero;stroke:none"
     id="path314"
     inkscape:connector-curvature="0" /></g><g
   id="g316"
   transform="matrix(0.922691,0,0,0.922691,948.42959,517.06803)"><path
     d="m 0,0 c 0,5.502 -4.46,9.963 -9.962,9.963 -5.503,0 -9.963,-4.461 -9.963,-9.963 0,-5.503 4.46,-9.963 9.963,-9.963 C -4.46,-9.963 0,-5.503 0,0 Z"
     style="fill:none;stroke:#2d8ca8;stroke-width:4.98099995;stroke-linecap:butt;stroke-linejoin:miter;stroke-miterlimit:10;stroke-dasharray:none;stroke-opacity:1"
     id="path318"
     inkscape:connector-curvature="0" /></g><g
   id="g320"
   transform="matrix(0.922691,0,0,0.922691,1334.8654,558.53784)"><path
     d="m 0,0 c 0,5.503 -4.461,9.963 -9.963,9.963 -5.503,0 -9.963,-4.46 -9.963,-9.963 0,-5.502 4.46,-9.963 9.963,-9.963 C -4.461,-9.963 0,-5.502 0,0"
     style="fill:#000000;fill-opacity:1;fill-rule:nonzero;stroke:none"
     id="path322"
     inkscape:connector-curvature="0" /></g><g
   id="g324"
   transform="matrix(0.922691,0,0,0.922691,1334.8654,558.53784)"><path
     d="m 0,0 c 0,5.503 -4.461,9.963 -9.963,9.963 -5.503,0 -9.963,-4.46 -9.963,-9.963 0,-5.502 4.46,-9.963 9.963,-9.963 C -4.461,-9.963 0,-5.502 0,0 Z"
     style="fill:none;stroke:#2d8ca8;stroke-width:1;stroke-linecap:butt;stroke-linejoin:miter;stroke-miterlimit:10;stroke-dasharray:none;stroke-opacity:1"
     id="path326"
     inkscape:connector-curvature="0" /></g><g
   id="g328"
   transform="matrix(0.922691,0,0,0.922691,1334.8654,558.53784)"><path
     d="m 0,0 c 0,5.503 -4.461,9.963 -9.963,9.963 -5.503,0 -9.963,-4.46 -9.963,-9.963 0,-5.502 4.46,-9.963 9.963,-9.963 C -4.461,-9.963 0,-5.502 0,0"
     style="fill:#2f8da9;fill-opacity:1;fill-rule:nonzero;stroke:none"
     id="path330"
     inkscape:connector-curvature="0" /></g><g
   id="g332"
   transform="matrix(0.922691,0,0,0.922691,1334.8654,558.53784)"><path
     d="m 0,0 c 0,5.503 -4.461,9.963 -9.963,9.963 -5.503,0 -9.963,-4.46 -9.963,-9.963 0,-5.502 4.46,-9.963 9.963,-9.963 C -4.461,-9.963 0,-5.502 0,0 Z"
     style="fill:none;stroke:#2d8ca8;stroke-width:4.98099995;stroke-linecap:butt;stroke-linejoin:miter;stroke-miterlimit:10;stroke-dasharray:none;stroke-opacity:1"
     id="path334"
     inkscape:connector-curvature="0" /></g><g
   id="g336"
   transform="matrix(0.922691,0,0,0.922691,1024.6925,585.24273)"><path
     d="m 0,0 c -3.451,-125.185 95.236,-229.467 220.421,-232.918 125.185,-3.451 229.467,95.236 232.918,220.421 C 456.79,112.688 358.103,216.97 232.918,220.42 141.313,222.948 57.152,170.05 19.709,86.408"
     style="fill:none;stroke:#2d8ca8;stroke-width:4.98099995;stroke-linecap:butt;stroke-linejoin:miter;stroke-miterlimit:10;stroke-dasharray:none;stroke-opacity:1"
     id="path338"
     inkscape:connector-curvature="0" /></g><g
   id="g340"
   transform="matrix(0.922691,0,0,0.922691,1074.7833,565.55711)"><path
     d="m 0,0 c 0,5.502 -4.46,9.962 -9.962,9.962 -5.503,0 -9.963,-4.46 -9.963,-9.962 0,-5.503 4.46,-9.963 9.963,-9.963 C -4.46,-9.963 0,-5.503 0,0"
     style="fill:#000000;fill-opacity:1;fill-rule:nonzero;stroke:none"
     id="path342"
     inkscape:connector-curvature="0" /></g><g
   id="g344"
   transform="matrix(0.922691,0,0,0.922691,1074.7833,565.55711)"><path
     d="m 0,0 c 0,5.502 -4.46,9.962 -9.962,9.962 -5.503,0 -9.963,-4.46 -9.963,-9.962 0,-5.503 4.46,-9.963 9.963,-9.963 C -4.46,-9.963 0,-5.503 0,0 Z"
     style="fill:none;stroke:#2d8ca8;stroke-width:1;stroke-linecap:butt;stroke-linejoin:miter;stroke-miterlimit:10;stroke-dasharray:none;stroke-opacity:1"
     id="path346"
     inkscape:connector-curvature="0" /></g><g
   id="g348"
   transform="matrix(0.922691,0,0,0.922691,1074.7833,565.55711)"><path
     d="m 0,0 c 0,5.502 -4.46,9.962 -9.962,9.962 -5.503,0 -9.963,-4.46 -9.963,-9.962 0,-5.503 4.46,-9.963 9.963,-9.963 C -4.46,-9.963 0,-5.503 0,0"
     style="fill:#2f8da9;fill-opacity:1;fill-rule:nonzero;stroke:none"
     id="path350"
     inkscape:connector-curvature="0" /></g><g
   id="g352"
   transform="matrix(0.922691,0,0,0.922691,1074.7833,565.55711)"><path
     d="m 0,0 c 0,5.502 -4.46,9.962 -9.962,9.962 -5.503,0 -9.963,-4.46 -9.963,-9.962 0,-5.503 4.46,-9.963 9.963,-9.963 C -4.46,-9.963 0,-5.503 0,0 Z"
     style="fill:none;stroke:#2d8ca8;stroke-width:4.98099995;stroke-linecap:butt;stroke-linejoin:miter;stroke-miterlimit:10;stroke-dasharray:none;stroke-opacity:1"
     id="path354"
     inkscape:connector-curvature="0" /></g><g
   id="g356"
   transform="matrix(0.922691,0,0,0.922691,1074.8048,456.23898)"><path
     d="m 0,0 c 0,5.503 -4.46,9.963 -9.962,9.963 -5.503,0 -9.963,-4.46 -9.963,-9.963 0,-5.502 4.46,-9.963 9.963,-9.963 C -4.46,-9.963 0,-5.502 0,0"
     style="fill:#2f8da9;fill-opacity:1;fill-rule:nonzero;stroke:none"
     id="path358"
     inkscape:connector-curvature="0" /></g><g
   id="g360"
   transform="matrix(0.922691,0,0,0.922691,1074.8048,456.23898)"><path
     d="m 0,0 c 0,5.503 -4.46,9.963 -9.962,9.963 -5.503,0 -9.963,-4.46 -9.963,-9.963 0,-5.502 4.46,-9.963 9.963,-9.963 C -4.46,-9.963 0,-5.502 0,0 Z"
     style="fill:none;stroke:#2d8ca8;stroke-width:1;stroke-linecap:butt;stroke-linejoin:miter;stroke-miterlimit:10;stroke-dasharray:none;stroke-opacity:1"
     id="path362"
     inkscape:connector-curvature="0" /></g><g
   id="g364"
   transform="matrix(0.922691,0,0,0.922691,1074.8048,456.23898)"><path
     d="m 0,0 c 0,5.503 -4.46,9.963 -9.962,9.963 -5.503,0 -9.963,-4.46 -9.963,-9.963 0,-5.502 4.46,-9.963 9.963,-9.963 C -4.46,-9.963 0,-5.502 0,0 Z"
     style="fill:none;stroke:#2d8ca8;stroke-width:4.98099995;stroke-linecap:butt;stroke-linejoin:miter;stroke-miterlimit:10;stroke-dasharray:none;stroke-opacity:1"
     id="path366"
     inkscape:connector-curvature="0" /></g><g
   id="g368"
   transform="matrix(0.922691,0,0,0.922691,1283.3163,784.22406)"><path
     d="m 0,0 c 0,5.502 -4.46,9.962 -9.962,9.962 -5.503,0 -9.963,-4.46 -9.963,-9.962 0,-5.503 4.46,-9.963 9.963,-9.963 C -4.46,-9.963 0,-5.503 0,0"
     style="fill:#2f8da9;fill-opacity:1;fill-rule:nonzero;stroke:none"
     id="path370"
     inkscape:connector-curvature="0" /></g><g
   id="g372"
   transform="matrix(0.922691,0,0,0.922691,1283.3163,784.22406)"><path
     d="m 0,0 c 0,5.502 -4.46,9.962 -9.962,9.962 -5.503,0 -9.963,-4.46 -9.963,-9.962 0,-5.503 4.46,-9.963 9.963,-9.963 C -4.46,-9.963 0,-5.503 0,0 Z"
     style="fill:none;stroke:#2d8ca8;stroke-width:1;stroke-linecap:butt;stroke-linejoin:miter;stroke-miterlimit:10;stroke-dasharray:none;stroke-opacity:1"
     id="path374"
     inkscape:connector-curvature="0" /></g><g
   id="g376"
   transform="matrix(0.922691,0,0,0.922691,1283.3163,784.22406)"><path
     d="m 0,0 c 0,5.502 -4.46,9.962 -9.962,9.962 -5.503,0 -9.963,-4.46 -9.963,-9.962 0,-5.503 4.46,-9.963 9.963,-9.963 C -4.46,-9.963 0,-5.503 0,0 Z"
     style="fill:none;stroke:#2d8ca8;stroke-width:4.98099995;stroke-linecap:butt;stroke-linejoin:miter;stroke-miterlimit:10;stroke-dasharray:none;stroke-opacity:1"
     id="path378"
     inkscape:connector-curvature="0" /></g><g
   id="g380"
   transform="matrix(0.922691,0,0,0.922691,1065.5909,565.55711)"><path
     d="m 0,0 c 95.722,-80.749 238.783,-68.609 319.53,27.112 80.749,95.723 68.61,238.784 -27.112,319.532 C 196.695,427.392 53.635,415.252 -27.113,319.53 -86.204,249.486 -97.318,150.706 -55.27,69.282"
     style="fill:none;stroke:#2d8ca8;stroke-width:4.98099995;stroke-linecap:butt;stroke-linejoin:miter;stroke-miterlimit:10;stroke-dasharray:none;stroke-opacity:1"
     id="path382"
     inkscape:connector-curvature="0" /></g><g
   id="g384"
   transform="matrix(0.922691,0,0,0.922691,1104.7643,596.61323)"><path
     d="M 0,0 C -5.19,34.417 -23.066,56.833 -55.467,69.547"
     style="fill:none;stroke:#2d8ca8;stroke-width:4.98099995;stroke-linecap:butt;stroke-linejoin:miter;stroke-miterlimit:10;stroke-dasharray:none;stroke-opacity:1"
     id="path386"
     inkscape:connector-curvature="0" /></g><g
   id="g388"
   transform="matrix(0.922691,0,0,0.922691,1039.4876,653.97775)"><path
     d="M 0,0 C -10.217,-33.125 -3.795,-61.253 19.784,-86.665"
     style="fill:none;stroke:#2d8ca8;stroke-width:4.98099995;stroke-linecap:butt;stroke-linejoin:miter;stroke-miterlimit:10;stroke-dasharray:none;stroke-opacity:1"
     id="path390"
     inkscape:connector-curvature="0" /></g><g
   id="g392"
   transform="matrix(0.922691,0,0,0.922691,1073.4353,574.01273)"><path
     d="M 0,0 C 23.573,25.418 29.987,53.548 19.761,86.672"
     style="fill:none;stroke:#2d8ca8;stroke-width:4.98099995;stroke-linecap:butt;stroke-linejoin:miter;stroke-miterlimit:10;stroke-dasharray:none;stroke-opacity:1"
     id="path394"
     inkscape:connector-curvature="0" /></g><g
   id="g396"
   transform="matrix(0.922691,0,0,0.922691,1077.5666,660.7862)"><path
     d="M 0,0 C -32.396,-12.722 -50.269,-35.142 -55.45,-69.558"
     style="fill:none;stroke:#2d8ca8;stroke-width:4.98099995;stroke-linecap:butt;stroke-linejoin:miter;stroke-miterlimit:10;stroke-dasharray:none;stroke-opacity:1"
     id="path398"
     inkscape:connector-curvature="0" /></g><g
   id="g400"
   transform="matrix(0.922691,0,0,0.922691,1036.1553,584.3849)"><path
     d="M 0,0 C 34.694,-2.596 60.541,9.854 80.137,38.603"
     style="fill:none;stroke:#2d8ca8;stroke-width:4.98099995;stroke-linecap:butt;stroke-linejoin:miter;stroke-miterlimit:10;stroke-dasharray:none;stroke-opacity:1"
     id="path402"
     inkscape:connector-curvature="0" /></g><g
   id="g404"
   transform="matrix(0.922691,0,0,0.922691,1106.5907,635.26715)"><path
     d="M 0,0 C -30.023,17.331 -58.874,17.327 -88.895,-0.009"
     style="fill:none;stroke:#2d8ca8;stroke-width:4.98099995;stroke-linecap:butt;stroke-linejoin:miter;stroke-miterlimit:10;stroke-dasharray:none;stroke-opacity:1"
     id="path406"
     inkscape:connector-curvature="0" /></g><g
   id="g408"
   transform="matrix(0.922691,0,0,0.922691,1021.0649,619.99229)"><path
     d="M 0,0 C 19.603,-28.744 45.452,-41.188 80.147,-38.585"
     style="fill:none;stroke:#2d8ca8;stroke-width:4.98099995;stroke-linecap:butt;stroke-linejoin:miter;stroke-miterlimit:10;stroke-dasharray:none;stroke-opacity:1"
     id="path410"
     inkscape:connector-curvature="0" /></g><path
   style="font-style:normal;font-variant:normal;font-weight:normal;font-stretch:normal;font-size:1384.2791748px;line-height:normal;font-family:'Myriad Pro';-inkscape-font-specification:MyriadPro-Regular;font-variant-ligatures:normal;font-variant-position:normal;font-variant-caps:normal;font-variant-numeric:normal;font-variant-alternates:normal;font-feature-settings:normal;text-indent:0;text-align:start;text-decoration:none;text-decoration-line:none;text-decoration-style:solid;text-decoration-color:#000000;letter-spacing:normal;word-spacing:normal;text-transform:none;writing-mode:lr-tb;direction:ltr;text-orientation:mixed;dominant-baseline:auto;baseline-shift:baseline;text-anchor:start;white-space:normal;shape-padding:0;opacity:1;vector-effect:none;fill:#1e64c8;fill-opacity:1;stroke:none;stroke-width:0.99574476;stroke-linecap:butt;stroke-linejoin:miter;stroke-miterlimit:4;stroke-dasharray:none;stroke-dashoffset:0;stroke-opacity:1"
   d="m 2002.318,2238.3182 c -127.5457,0 -227.3954,-41.5228 -299.5497,-124.5684 -71.79,-82.6405 -107.6855,-198.0937 -107.6855,-346.3604 0,-147.8616 35.8955,-263.3149 107.6855,-346.3605 72.1543,-82.6404 172.004,-123.9614 299.5497,-123.9614 58.3066,0 113.1518,8.5083 164.5345,25.5225 51.3827,17.4193 98.3925,42.9403 141.0292,76.5636 v 389.504 h -289.7112 v -100.8707 h 180.3858 v -243.6674 c -24.4159,-15.7987 -51.9292,-27.5466 -82.5402,-35.2435 -30.6109,-7.2919 -65.4129,-10.9377 -104.4055,-10.9377 -99.85,0 -174.9198,30.9903 -225.2092,92.9707 -49.9251,61.9804 -74.8876,154.14 -74.8875,276.4804 0,122.7453 24.9624,215.1082 74.8875,277.0885 50.2894,61.9804 125.3592,92.9707 225.2092,92.9707 50.6539,0 98.9398,-9.7222 144.8562,-29.1671 45.9165,-19.4448 89.282,-48.4097 130.0966,-86.8942 v 130.6449 c -40.4502,28.357 -84.7264,49.827 -132.8293,64.4107 -47.7386,14.5836 -98.2114,21.8753 -151.4161,21.8753 z M 462.47754,2221.9123 666.91445,1314.69 H 805.75789 L 979.58385,2102.2051 1151.7711,1314.69 h 138.8422 l 204.984,907.2223 H 1383.5391 L 1212.446,1455.0572 1040.8058,2221.9123 H 916.72199 L 745.62887,1455.0572 573.98869,2221.9123 Z"
   id="text1439"
   inkscape:connector-curvature="0" /><text
   transform="scale(0.93153644,-1.0734953)"
   style="font-variant:normal;font-weight:normal;font-stretch:normal;font-size:1049.7px;font-family:'Myriad Pro';-inkscape-font-specification:MyriadPro-Regular;writing-mode:lr-tb;fill:#2d8ca8;fill-opacity:1;fill-rule:nonzero;stroke:none;stroke-width:0.85952"
   id="text1443"
   x="1464.405"
   y="-239.97807"><tspan
     x="1464.405"
     y="-239.97807"
     id="tspan1441"
     style="stroke-width:0.85952">2</tspan></text>
<text
   transform="scale(0.93153644,-1.0734953)"
   style="font-variant:normal;font-weight:normal;font-stretch:normal;font-size:1049.7px;font-family:'Myriad Pro';-inkscape-font-specification:MyriadPro-Regular;writing-mode:lr-tb;fill:#2d8ca8;fill-opacity:1;fill-rule:nonzero;stroke:none;stroke-width:0.85952"
   id="text1447"
   x="2099.9915"
   y="-243.49106"><tspan
     x="2099.9915"
     y="-243.49106"
     id="tspan1445"
     style="stroke-width:0.85952">6</tspan></text>
</g></g></g></svg>
