<?xml version="1.0" encoding="UTF-8" standalone="no"?>
<svg
   version="1.1"
   id="svg2"
   xml:space="preserve"
   width="1000.0015mm"
   height="750mm"
   viewBox="0 0 3779.533 2834.6456"
   sodipodi:docname="logo_color 2026.svg"
   inkscape:version="1.4 (e7c3feb1, 2024-10-09)"
   inkscape:export-filename="C:\Users\nico_\Documents\ggtw\2022\logo\logoBGTC2023.png"
   inkscape:export-xdpi="5.0799999"
   inkscape:export-ydpi="5.0799999"
   xmlns:inkscape="http://www.inkscape.org/namespaces/inkscape"
   xmlns:sodipodi="http://sodipodi.sourceforge.net/DTD/sodipodi-0.dtd"
   xmlns="http://www.w3.org/2000/svg"
   xmlns:svg="http://www.w3.org/2000/svg"
   xmlns:rdf="http://www.w3.org/1999/02/22-rdf-syntax-ns#"
   xmlns:cc="http://creativecommons.org/ns#"
   xmlns:dc="http://purl.org/dc/elements/1.1/"><metadata
     id="metadata8"><rdf:RDF><cc:Work
         rdf:about=""><dc:format>image/svg+xml</dc:format><dc:type
           rdf:resource="http://purl.org/dc/dcmitype/StillImage" /><dc:title /></cc:Work></rdf:RDF></metadata><defs
     id="defs6"><clipPath
       clipPathUnits="userSpaceOnUse"
       id="clipPath18"><path
         d="M 0,2485.43 H 2834.646 V 0 H 0 Z"
         id="path16" /></clipPath></defs><sodipodi:namedview
     pagecolor="#ffffff"
     bordercolor="#666666"
     borderopacity="1"
     objecttolerance="10"
     gridtolerance="10"
     guidetolerance="10"
     inkscape:pageopacity="0"
     inkscape:pageshadow="2"
     inkscape:window-width="1200"
     inkscape:window-height="1186"
     id="namedview4"
     showgrid="false"
     inkscape:zoom="0.17753515"
     inkscape:cx="1951.7262"
     inkscape:cy="515.3909"
     inkscape:window-x="553"
     inkscape:window-y="25"
     inkscape:window-maximized="0"
     inkscape:current-layer="g1217"
     inkscape:document-rotation="0"
     units="mm"
     inkscape:showpageshadow="2"
     inkscape:pagecheckerboard="0"
     inkscape:deskcolor="#d1d1d1"
     inkscape:document-units="mm" /><g
     id="g10"
     inkscape:groupmode="layer"
     inkscape:label="logo_color 2019"
     transform="matrix(1.3333333,0,0,-1.3333333,0,3313.9067)"><g
       id="g12"><g
         id="g1217"
         transform="translate(32.261283,175.0182)"><text
           transform="scale(0.93153644,-1.0734953)"
           style="font-variant:normal;font-weight:normal;font-stretch:normal;font-size:1137.65px;font-family:'Myriad Pro';-inkscape-font-specification:MyriadPro-Regular;writing-mode:lr-tb;fill:#2d8ca8;fill-opacity:1;fill-rule:nonzero;stroke:none;stroke-width:0.931536"
           id="text42"
           x="93.062271"
           y="-251.83054"><tspan
             x="93.062271"
             y="-251.83054"
             id="tspan40"
             style="stroke-width:0.931536">2</tspan></text><g
           id="g44"
           transform="translate(1104.8406,625.4249)"><path
             d="m 0,0 c 0,5.503 -4.46,9.963 -9.963,9.963 -5.502,0 -9.963,-4.46 -9.963,-9.963 0,-5.502 4.461,-9.963 9.963,-9.963 C -4.46,-9.963 0,-5.502 0,0"
             style="fill:#2f8da9;fill-opacity:1;fill-rule:nonzero;stroke:none"
             id="path46" /></g><g
           id="g48"
           transform="translate(1104.8406,625.4249)"><path
             d="m 0,0 c 0,5.503 -4.46,9.963 -9.963,9.963 -5.502,0 -9.963,-4.46 -9.963,-9.963 0,-5.502 4.461,-9.963 9.963,-9.963 C -4.46,-9.963 0,-5.502 0,0 Z"
             style="fill:none;stroke:#2d8ca8;stroke-width:1;stroke-linecap:butt;stroke-linejoin:miter;stroke-miterlimit:10;stroke-dasharray:none;stroke-opacity:1"
             id="path50" /></g><g
           id="g52"
           transform="translate(1104.8406,625.4249)"><path
             d="m 0,0 c 0,5.503 -4.46,9.963 -9.963,9.963 -5.502,0 -9.963,-4.46 -9.963,-9.963 0,-5.502 4.461,-9.963 9.963,-9.963 C -4.46,-9.963 0,-5.502 0,0 Z"
             style="fill:none;stroke:#2d8ca8;stroke-width:4.981;stroke-linecap:butt;stroke-linejoin:miter;stroke-miterlimit:10;stroke-dasharray:none;stroke-opacity:1"
             id="path54" /></g><g
           id="g56"
           transform="translate(1197.4773,551.5557)"><path
             d="m 0,0 c 0,5.502 -4.46,9.963 -9.963,9.963 -5.502,0 -9.963,-4.461 -9.963,-9.963 0,-5.502 4.461,-9.963 9.963,-9.963 C -4.46,-9.963 0,-5.502 0,0"
             style="fill:#000000;fill-opacity:1;fill-rule:nonzero;stroke:none"
             id="path58" /></g><g
           id="g60"
           transform="translate(1197.4773,551.5557)"><path
             d="m 0,0 c 0,5.502 -4.46,9.963 -9.963,9.963 -5.502,0 -9.963,-4.461 -9.963,-9.963 0,-5.502 4.461,-9.963 9.963,-9.963 C -4.46,-9.963 0,-5.502 0,0 Z"
             style="fill:none;stroke:#2d8ca8;stroke-width:1;stroke-linecap:butt;stroke-linejoin:miter;stroke-miterlimit:10;stroke-dasharray:none;stroke-opacity:1"
             id="path62" /></g><g
           id="g64"
           transform="translate(1197.4773,551.5557)"><path
             d="m 0,0 c 0,5.502 -4.46,9.963 -9.963,9.963 -5.502,0 -9.963,-4.461 -9.963,-9.963 0,-5.502 4.461,-9.963 9.963,-9.963 C -4.46,-9.963 0,-5.502 0,0"
             style="fill:#2f8da9;fill-opacity:1;fill-rule:nonzero;stroke:none"
             id="path66" /></g><g
           id="g68"
           transform="translate(1197.4773,551.5557)"><path
             d="m 0,0 c 0,5.502 -4.46,9.963 -9.963,9.963 -5.502,0 -9.963,-4.461 -9.963,-9.963 0,-5.502 4.461,-9.963 9.963,-9.963 C -4.46,-9.963 0,-5.502 0,0 Z"
             style="fill:none;stroke:#2d8ca8;stroke-width:4.981;stroke-linecap:butt;stroke-linejoin:miter;stroke-miterlimit:10;stroke-dasharray:none;stroke-opacity:1"
             id="path70" /></g><g
           id="g72"
           transform="translate(1060.5168,949.9068)"><path
             d="m 0,0 c 0,5.502 -4.46,9.963 -9.963,9.963 -5.502,0 -9.963,-4.461 -9.963,-9.963 0,-5.502 4.461,-9.963 9.963,-9.963 C -4.46,-9.963 0,-5.502 0,0"
             style="fill:#2f8da9;fill-opacity:1;fill-rule:nonzero;stroke:none"
             id="path74" /></g><g
           id="g76"
           transform="translate(1060.5168,949.9068)"><path
             d="m 0,0 c 0,5.502 -4.46,9.963 -9.963,9.963 -5.502,0 -9.963,-4.461 -9.963,-9.963 0,-5.502 4.461,-9.963 9.963,-9.963 C -4.46,-9.963 0,-5.502 0,0 Z"
             style="fill:none;stroke:#2d8ca8;stroke-width:1;stroke-linecap:butt;stroke-linejoin:miter;stroke-miterlimit:10;stroke-dasharray:none;stroke-opacity:1"
             id="path78" /></g><g
           id="g80"
           transform="translate(1060.5168,949.9068)"><path
             d="m 0,0 c 0,5.502 -4.46,9.963 -9.963,9.963 -5.502,0 -9.963,-4.461 -9.963,-9.963 0,-5.502 4.461,-9.963 9.963,-9.963 C -4.46,-9.963 0,-5.502 0,0 Z"
             style="fill:none;stroke:#2d8ca8;stroke-width:4.981;stroke-linecap:butt;stroke-linejoin:miter;stroke-miterlimit:10;stroke-dasharray:none;stroke-opacity:1"
             id="path82" /></g><g
           id="g84"
           transform="translate(1094.8777,625.4249)"><path
             d="M 0,0 C 122.824,24.475 202.552,143.887 178.078,266.71 153.603,389.533 34.191,469.262 -88.632,444.788 -211.456,420.313 -291.185,300.901 -266.71,178.078 -248.803,88.2 -178.51,17.907 -88.632,0"
             style="fill:none;stroke:#2d8ca8;stroke-width:4.981;stroke-linecap:butt;stroke-linejoin:miter;stroke-miterlimit:10;stroke-dasharray:none;stroke-opacity:1"
             id="path86" /></g><g
           id="g88"
           transform="translate(1115.782,673.3878)"><path
             d="m 0,0 c 0,5.502 -4.46,9.963 -9.962,9.963 -5.503,0 -9.963,-4.461 -9.963,-9.963 0,-5.502 4.46,-9.963 9.963,-9.963 C -4.46,-9.963 0,-5.502 0,0"
             style="fill:#000000;fill-opacity:1;fill-rule:nonzero;stroke:none"
             id="path90" /></g><g
           id="g92"
           transform="translate(1115.782,673.3878)"><path
             d="m 0,0 c 0,5.502 -4.46,9.963 -9.962,9.963 -5.503,0 -9.963,-4.461 -9.963,-9.963 0,-5.502 4.46,-9.963 9.963,-9.963 C -4.46,-9.963 0,-5.502 0,0 Z"
             style="fill:none;stroke:#2d8ca8;stroke-width:1;stroke-linecap:butt;stroke-linejoin:miter;stroke-miterlimit:10;stroke-dasharray:none;stroke-opacity:1"
             id="path94" /></g><g
           id="g96"
           transform="translate(1115.782,673.3878)"><path
             d="m 0,0 c 0,5.502 -4.46,9.963 -9.962,9.963 -5.503,0 -9.963,-4.461 -9.963,-9.963 0,-5.502 4.46,-9.963 9.963,-9.963 C -4.46,-9.963 0,-5.502 0,0"
             style="fill:#2f8da9;fill-opacity:1;fill-rule:nonzero;stroke:none"
             id="path98" /></g><g
           id="g100"
           transform="translate(1115.782,673.3878)"><path
             d="m 0,0 c 0,5.502 -4.46,9.963 -9.962,9.963 -5.503,0 -9.963,-4.461 -9.963,-9.963 0,-5.502 4.46,-9.963 9.963,-9.963 C -4.46,-9.963 0,-5.502 0,0 Z"
             style="fill:none;stroke:#2d8ca8;stroke-width:4.981;stroke-linecap:butt;stroke-linejoin:miter;stroke-miterlimit:10;stroke-dasharray:none;stroke-opacity:1"
             id="path102" /></g><g
           id="g104"
           transform="translate(1231.2864,699.7598)"><path
             d="m 0,0 c 0,5.503 -4.46,9.963 -9.962,9.963 -5.503,0 -9.963,-4.46 -9.963,-9.963 0,-5.502 4.46,-9.962 9.963,-9.962 C -4.46,-9.962 0,-5.502 0,0"
             style="fill:#000000;fill-opacity:1;fill-rule:nonzero;stroke:none"
             id="path106" /></g><g
           id="g108"
           transform="translate(1231.2864,699.7598)"><path
             d="m 0,0 c 0,5.503 -4.46,9.963 -9.962,9.963 -5.503,0 -9.963,-4.46 -9.963,-9.963 0,-5.502 4.46,-9.962 9.963,-9.962 C -4.46,-9.962 0,-5.502 0,0 Z"
             style="fill:none;stroke:#2d8ca8;stroke-width:1;stroke-linecap:butt;stroke-linejoin:miter;stroke-miterlimit:10;stroke-dasharray:none;stroke-opacity:1"
             id="path110" /></g><g
           id="g112"
           transform="translate(1231.2864,699.7598)"><path
             d="m 0,0 c 0,5.503 -4.46,9.963 -9.962,9.963 -5.503,0 -9.963,-4.46 -9.963,-9.963 0,-5.502 4.46,-9.962 9.963,-9.962 C -4.46,-9.962 0,-5.502 0,0"
             style="fill:#2f8da9;fill-opacity:1;fill-rule:nonzero;stroke:none"
             id="path114" /></g><g
           id="g116"
           transform="translate(1231.2864,699.7598)"><path
             d="m 0,0 c 0,5.503 -4.46,9.963 -9.962,9.963 -5.503,0 -9.963,-4.46 -9.963,-9.963 0,-5.502 4.46,-9.962 9.963,-9.962 C -4.46,-9.962 0,-5.502 0,0 Z"
             style="fill:none;stroke:#2d8ca8;stroke-width:4.981;stroke-linecap:butt;stroke-linejoin:miter;stroke-miterlimit:10;stroke-dasharray:none;stroke-opacity:1"
             id="path118" /></g><g
           id="g120"
           transform="translate(834.465,841.0255)"><path
             d="m 0,0 c 0,5.502 -4.46,9.963 -9.963,9.963 -5.502,0 -9.963,-4.461 -9.963,-9.963 0,-5.502 4.461,-9.963 9.963,-9.963 C -4.46,-9.963 0,-5.502 0,0"
             style="fill:#2f8da9;fill-opacity:1;fill-rule:nonzero;stroke:none"
             id="path122" /></g><g
           id="g124"
           transform="translate(834.465,841.0255)"><path
             d="m 0,0 c 0,5.502 -4.46,9.963 -9.963,9.963 -5.502,0 -9.963,-4.461 -9.963,-9.963 0,-5.502 4.461,-9.963 9.963,-9.963 C -4.46,-9.963 0,-5.502 0,0 Z"
             style="fill:none;stroke:#2d8ca8;stroke-width:1;stroke-linecap:butt;stroke-linejoin:miter;stroke-miterlimit:10;stroke-dasharray:none;stroke-opacity:1"
             id="path126" /></g><g
           id="g128"
           transform="translate(834.465,841.0255)"><path
             d="m 0,0 c 0,5.502 -4.46,9.963 -9.963,9.963 -5.502,0 -9.963,-4.461 -9.963,-9.963 0,-5.502 4.461,-9.963 9.963,-9.963 C -4.46,-9.963 0,-5.502 0,0"
             style="fill:#2f8da9;fill-opacity:1;fill-rule:nonzero;stroke:none"
             id="path130" /></g><g
           id="g132"
           transform="translate(834.465,841.0255)"><path
             d="m 0,0 c 0,5.502 -4.46,9.963 -9.963,9.963 -5.502,0 -9.963,-4.461 -9.963,-9.963 0,-5.502 4.461,-9.963 9.963,-9.963 C -4.46,-9.963 0,-5.502 0,0 Z"
             style="fill:none;stroke:#2d8ca8;stroke-width:1;stroke-linecap:butt;stroke-linejoin:miter;stroke-miterlimit:10;stroke-dasharray:none;stroke-opacity:1"
             id="path134" /></g><g
           id="g136"
           transform="translate(1105.8196,673.3878)"><path
             d="m 0,0 c 57.437,111.283 13.784,248.061 -97.499,305.498 -111.284,57.437 -248.061,13.785 -305.498,-97.499 -57.437,-111.283 -13.785,-248.062 97.499,-305.498 81.432,-42.032 180.209,-30.899 250.242,28.205"
             style="fill:none;stroke:#2d8ca8;stroke-width:4.981;stroke-linecap:butt;stroke-linejoin:miter;stroke-miterlimit:10;stroke-dasharray:none;stroke-opacity:1"
             id="path138" /></g><g
           id="g140"
           transform="translate(1085.1091,711.8458)"><path
             d="m 0,0 c 0,5.503 -4.46,9.963 -9.963,9.963 -5.502,0 -9.962,-4.46 -9.962,-9.963 0,-5.502 4.46,-9.963 9.962,-9.963 C -4.46,-9.963 0,-5.502 0,0"
             style="fill:#000000;fill-opacity:1;fill-rule:nonzero;stroke:none"
             id="path142" /></g><g
           id="g144"
           transform="translate(1085.1091,711.8458)"><path
             d="m 0,0 c 0,5.503 -4.46,9.963 -9.963,9.963 -5.502,0 -9.962,-4.46 -9.962,-9.963 0,-5.502 4.46,-9.963 9.962,-9.963 C -4.46,-9.963 0,-5.502 0,0 Z"
             style="fill:none;stroke:#2d8ca8;stroke-width:1;stroke-linecap:butt;stroke-linejoin:miter;stroke-miterlimit:10;stroke-dasharray:none;stroke-opacity:1"
             id="path146" /></g><g
           id="g148"
           transform="translate(1085.1091,711.8458)"><path
             d="m 0,0 c 0,5.503 -4.46,9.963 -9.963,9.963 -5.502,0 -9.962,-4.46 -9.962,-9.963 0,-5.502 4.46,-9.963 9.962,-9.963 C -4.46,-9.963 0,-5.502 0,0"
             style="fill:#2f8da9;fill-opacity:1;fill-rule:nonzero;stroke:none"
             id="path150" /></g><g
           id="g152"
           transform="translate(1085.1091,711.8458)"><path
             d="m 0,0 c 0,5.503 -4.46,9.963 -9.963,9.963 -5.502,0 -9.962,-4.46 -9.962,-9.963 0,-5.502 4.46,-9.963 9.962,-9.963 C -4.46,-9.963 0,-5.502 0,0 Z"
             style="fill:none;stroke:#2d8ca8;stroke-width:4.981;stroke-linecap:butt;stroke-linejoin:miter;stroke-miterlimit:10;stroke-dasharray:none;stroke-opacity:1"
             id="path154" /></g><g
           id="g156"
           transform="translate(1136.5071,818.5958)"><path
             d="m 0,0 c 0,5.502 -4.46,9.963 -9.963,9.963 -5.502,0 -9.963,-4.461 -9.963,-9.963 0,-5.503 4.461,-9.963 9.963,-9.963 C -4.46,-9.963 0,-5.503 0,0"
             style="fill:#2f8da9;fill-opacity:1;fill-rule:nonzero;stroke:none"
             id="path158" /></g><g
           id="g160"
           transform="translate(1136.5071,818.5958)"><path
             d="m 0,0 c 0,5.502 -4.46,9.963 -9.963,9.963 -5.502,0 -9.963,-4.461 -9.963,-9.963 0,-5.503 4.461,-9.963 9.963,-9.963 C -4.46,-9.963 0,-5.503 0,0 Z"
             style="fill:none;stroke:#2d8ca8;stroke-width:1;stroke-linecap:butt;stroke-linejoin:miter;stroke-miterlimit:10;stroke-dasharray:none;stroke-opacity:1"
             id="path162" /></g><g
           id="g164"
           transform="translate(1136.5071,818.5958)"><path
             d="m 0,0 c 0,5.502 -4.46,9.963 -9.963,9.963 -5.502,0 -9.963,-4.461 -9.963,-9.963 0,-5.503 4.461,-9.963 9.963,-9.963 C -4.46,-9.963 0,-5.503 0,0 Z"
             style="fill:none;stroke:#2d8ca8;stroke-width:4.981;stroke-linecap:butt;stroke-linejoin:miter;stroke-miterlimit:10;stroke-dasharray:none;stroke-opacity:1"
             id="path166" /></g><g
           id="g168"
           transform="translate(778.6413,596.4219)"><path
             d="m 0,0 c 0,5.502 -4.46,9.963 -9.963,9.963 -5.502,0 -9.963,-4.461 -9.963,-9.963 0,-5.502 4.461,-9.963 9.963,-9.963 C -4.46,-9.963 0,-5.502 0,0"
             style="fill:#2f8da9;fill-opacity:1;fill-rule:nonzero;stroke:none"
             id="path170" /></g><g
           id="g172"
           transform="translate(778.6413,596.4219)"><path
             d="m 0,0 c 0,5.502 -4.46,9.963 -9.963,9.963 -5.502,0 -9.963,-4.461 -9.963,-9.963 0,-5.502 4.461,-9.963 9.963,-9.963 C -4.46,-9.963 0,-5.502 0,0 Z"
             style="fill:none;stroke:#2d8ca8;stroke-width:1;stroke-linecap:butt;stroke-linejoin:miter;stroke-miterlimit:10;stroke-dasharray:none;stroke-opacity:1"
             id="path174" /></g><g
           id="g176"
           transform="translate(778.6413,596.4219)"><path
             d="m 0,0 c 0,5.502 -4.46,9.963 -9.963,9.963 -5.502,0 -9.963,-4.461 -9.963,-9.963 0,-5.502 4.461,-9.963 9.963,-9.963 C -4.46,-9.963 0,-5.502 0,0"
             style="fill:#2f8da9;fill-opacity:1;fill-rule:nonzero;stroke:none"
             id="path178" /></g><g
           id="g180"
           transform="translate(778.6413,596.4219)"><path
             d="m 0,0 c 0,5.502 -4.46,9.963 -9.963,9.963 -5.502,0 -9.963,-4.461 -9.963,-9.963 0,-5.502 4.461,-9.963 9.963,-9.963 C -4.46,-9.963 0,-5.502 0,0 Z"
             style="fill:none;stroke:#2d8ca8;stroke-width:1;stroke-linecap:butt;stroke-linejoin:miter;stroke-miterlimit:10;stroke-dasharray:none;stroke-opacity:1"
             id="path182" /></g><g
           id="g184"
           transform="translate(1075.1462,711.8458)"><path
             d="m 0,0 c -51.194,114.292 -185.35,165.443 -299.642,114.249 -114.292,-51.194 -165.444,-185.351 -114.249,-299.643 51.194,-114.291 185.35,-165.443 299.642,-114.249 83.636,37.46 136.519,121.631 133.974,213.237"
             style="fill:none;stroke:#2d8ca8;stroke-width:4.981;stroke-linecap:butt;stroke-linejoin:miter;stroke-miterlimit:10;stroke-dasharray:none;stroke-opacity:1"
             id="path186" /></g><g
           id="g188"
           transform="translate(1035.9143,711.8399)"><path
             d="m 0,0 c 0,5.502 -4.46,9.963 -9.962,9.963 -5.503,0 -9.963,-4.461 -9.963,-9.963 0,-5.503 4.46,-9.963 9.963,-9.963 C -4.46,-9.963 0,-5.503 0,0"
             style="fill:#000000;fill-opacity:1;fill-rule:nonzero;stroke:none"
             id="path190" /></g><g
           id="g192"
           transform="translate(1035.9143,711.8399)"><path
             d="m 0,0 c 0,5.502 -4.46,9.963 -9.962,9.963 -5.503,0 -9.963,-4.461 -9.963,-9.963 0,-5.503 4.46,-9.963 9.963,-9.963 C -4.46,-9.963 0,-5.503 0,0 Z"
             style="fill:none;stroke:#2d8ca8;stroke-width:1;stroke-linecap:butt;stroke-linejoin:miter;stroke-miterlimit:10;stroke-dasharray:none;stroke-opacity:1"
             id="path194" /></g><g
           id="g196"
           transform="translate(1035.9143,711.8399)"><path
             d="m 0,0 c 0,5.502 -4.46,9.963 -9.962,9.963 -5.503,0 -9.963,-4.461 -9.963,-9.963 0,-5.503 4.46,-9.963 9.963,-9.963 C -4.46,-9.963 0,-5.503 0,0"
             style="fill:#2f8da9;fill-opacity:1;fill-rule:nonzero;stroke:none"
             id="path198" /></g><g
           id="g200"
           transform="translate(1035.9143,711.8399)"><path
             d="m 0,0 c 0,5.502 -4.46,9.963 -9.962,9.963 -5.503,0 -9.963,-4.461 -9.963,-9.963 0,-5.503 4.46,-9.963 9.963,-9.963 C -4.46,-9.963 0,-5.503 0,0 Z"
             style="fill:none;stroke:#2d8ca8;stroke-width:4.981;stroke-linecap:butt;stroke-linejoin:miter;stroke-miterlimit:10;stroke-dasharray:none;stroke-opacity:1"
             id="path202" /></g><g
           id="g204"
           transform="translate(984.4958,818.5762)"><path
             d="m 0,0 c 0,5.502 -4.46,9.963 -9.963,9.963 -5.502,0 -9.963,-4.461 -9.963,-9.963 0,-5.502 4.461,-9.963 9.963,-9.963 C -4.46,-9.963 0,-5.502 0,0"
             style="fill:#000000;fill-opacity:1;fill-rule:nonzero;stroke:none"
             id="path206" /></g><g
           id="g208"
           transform="translate(984.4958,818.5762)"><path
             d="m 0,0 c 0,5.502 -4.46,9.963 -9.963,9.963 -5.502,0 -9.963,-4.461 -9.963,-9.963 0,-5.502 4.461,-9.963 9.963,-9.963 C -4.46,-9.963 0,-5.502 0,0 Z"
             style="fill:none;stroke:#2d8ca8;stroke-width:1;stroke-linecap:butt;stroke-linejoin:miter;stroke-miterlimit:10;stroke-dasharray:none;stroke-opacity:1"
             id="path210" /></g><g
           id="g212"
           transform="translate(984.4958,818.5762)"><path
             d="m 0,0 c 0,5.502 -4.46,9.963 -9.963,9.963 -5.502,0 -9.963,-4.461 -9.963,-9.963 0,-5.502 4.461,-9.963 9.963,-9.963 C -4.46,-9.963 0,-5.502 0,0"
             style="fill:#2f8da9;fill-opacity:1;fill-rule:nonzero;stroke:none"
             id="path214" /></g><g
           id="g216"
           transform="translate(984.4958,818.5762)"><path
             d="m 0,0 c 0,5.502 -4.46,9.963 -9.963,9.963 -5.502,0 -9.963,-4.461 -9.963,-9.963 0,-5.502 4.461,-9.963 9.963,-9.963 C -4.46,-9.963 0,-5.502 0,0 Z"
             style="fill:none;stroke:#2d8ca8;stroke-width:4.981;stroke-linecap:butt;stroke-linejoin:miter;stroke-miterlimit:10;stroke-dasharray:none;stroke-opacity:1"
             id="path218" /></g><g
           id="g220"
           transform="translate(935.0954,400.2696)"><path
             d="m 0,0 c 0,5.502 -4.46,9.963 -9.962,9.963 -5.503,0 -9.963,-4.461 -9.963,-9.963 0,-5.502 4.46,-9.963 9.963,-9.963 C -4.46,-9.963 0,-5.502 0,0"
             style="fill:#2f8da9;fill-opacity:1;fill-rule:nonzero;stroke:none"
             id="path222" /></g><g
           id="g224"
           transform="translate(935.0954,400.2696)"><path
             d="m 0,0 c 0,5.502 -4.46,9.963 -9.962,9.963 -5.503,0 -9.963,-4.461 -9.963,-9.963 0,-5.502 4.46,-9.963 9.963,-9.963 C -4.46,-9.963 0,-5.502 0,0 Z"
             style="fill:none;stroke:#2d8ca8;stroke-width:1;stroke-linecap:butt;stroke-linejoin:miter;stroke-miterlimit:10;stroke-dasharray:none;stroke-opacity:1"
             id="path226" /></g><g
           id="g228"
           transform="translate(935.0954,400.2696)"><path
             d="m 0,0 c 0,5.502 -4.46,9.963 -9.962,9.963 -5.503,0 -9.963,-4.461 -9.963,-9.963 0,-5.502 4.46,-9.963 9.963,-9.963 C -4.46,-9.963 0,-5.502 0,0 Z"
             style="fill:none;stroke:#2d8ca8;stroke-width:4.981;stroke-linecap:butt;stroke-linejoin:miter;stroke-miterlimit:10;stroke-dasharray:none;stroke-opacity:1"
             id="path230" /></g><g
           id="g232"
           transform="translate(1025.9519,711.8399)"><path
             d="m 0,0 c -121.275,31.228 -244.905,-41.772 -276.133,-163.048 -31.227,-121.275 41.773,-244.905 163.048,-276.133 121.275,-31.226 244.905,41.774 276.132,163.048 22.854,88.744 -9.985,182.566 -83.193,237.687"
             style="fill:none;stroke:#2d8ca8;stroke-width:4.981;stroke-linecap:butt;stroke-linejoin:miter;stroke-miterlimit:10;stroke-dasharray:none;stroke-opacity:1"
             id="path234" /></g><g
           id="g236"
           transform="translate(1005.2487,673.376)"><path
             d="m 0,0 c 0,5.503 -4.46,9.963 -9.963,9.963 -5.502,0 -9.963,-4.46 -9.963,-9.963 0,-5.502 4.461,-9.963 9.963,-9.963 C -4.46,-9.963 0,-5.502 0,0"
             style="fill:#000000;fill-opacity:1;fill-rule:nonzero;stroke:none"
             id="path238" /></g><g
           id="g240"
           transform="translate(1005.2487,673.376)"><path
             d="m 0,0 c 0,5.503 -4.46,9.963 -9.963,9.963 -5.502,0 -9.963,-4.46 -9.963,-9.963 0,-5.502 4.461,-9.963 9.963,-9.963 C -4.46,-9.963 0,-5.502 0,0 Z"
             style="fill:none;stroke:#2d8ca8;stroke-width:1;stroke-linecap:butt;stroke-linejoin:miter;stroke-miterlimit:10;stroke-dasharray:none;stroke-opacity:1"
             id="path242" /></g><g
           id="g244"
           transform="translate(1005.2487,673.376)"><path
             d="m 0,0 c 0,5.503 -4.46,9.963 -9.963,9.963 -5.502,0 -9.963,-4.46 -9.963,-9.963 0,-5.502 4.461,-9.963 9.963,-9.963 C -4.46,-9.963 0,-5.502 0,0"
             style="fill:#2f8da9;fill-opacity:1;fill-rule:nonzero;stroke:none"
             id="path246" /></g><g
           id="g248"
           transform="translate(1005.2487,673.376)"><path
             d="m 0,0 c 0,5.503 -4.46,9.963 -9.963,9.963 -5.502,0 -9.963,-4.46 -9.963,-9.963 0,-5.502 4.461,-9.963 9.963,-9.963 C -4.46,-9.963 0,-5.502 0,0 Z"
             style="fill:none;stroke:#2d8ca8;stroke-width:4.981;stroke-linecap:butt;stroke-linejoin:miter;stroke-miterlimit:10;stroke-dasharray:none;stroke-opacity:1"
             id="path250" /></g><g
           id="g252"
           transform="translate(889.739,699.7247)"><path
             d="m 0,0 c 0,5.502 -4.46,9.963 -9.962,9.963 -5.503,0 -9.963,-4.461 -9.963,-9.963 0,-5.503 4.46,-9.963 9.963,-9.963 C -4.46,-9.963 0,-5.503 0,0"
             style="fill:#000000;fill-opacity:1;fill-rule:nonzero;stroke:none"
             id="path254" /></g><g
           id="g256"
           transform="translate(889.739,699.7247)"><path
             d="m 0,0 c 0,5.502 -4.46,9.963 -9.962,9.963 -5.503,0 -9.963,-4.461 -9.963,-9.963 0,-5.503 4.46,-9.963 9.963,-9.963 C -4.46,-9.963 0,-5.503 0,0 Z"
             style="fill:none;stroke:#2d8ca8;stroke-width:1;stroke-linecap:butt;stroke-linejoin:miter;stroke-miterlimit:10;stroke-dasharray:none;stroke-opacity:1"
             id="path258" /></g><g
           id="g260"
           transform="translate(889.739,699.7247)"><path
             d="m 0,0 c 0,5.502 -4.46,9.963 -9.962,9.963 -5.503,0 -9.963,-4.461 -9.963,-9.963 0,-5.503 4.46,-9.963 9.963,-9.963 C -4.46,-9.963 0,-5.503 0,0"
             style="fill:#2f8da9;fill-opacity:1;fill-rule:nonzero;stroke:none"
             id="path262" /></g><g
           id="g264"
           transform="translate(889.739,699.7247)"><path
             d="m 0,0 c 0,5.502 -4.46,9.963 -9.962,9.963 -5.503,0 -9.963,-4.461 -9.963,-9.963 0,-5.503 4.46,-9.963 9.963,-9.963 C -4.46,-9.963 0,-5.503 0,0 Z"
             style="fill:none;stroke:#2d8ca8;stroke-width:4.981;stroke-linecap:butt;stroke-linejoin:miter;stroke-miterlimit:10;stroke-dasharray:none;stroke-opacity:1"
             id="path266" /></g><g
           id="g268"
           transform="translate(1185.9861,400.2921)"><path
             d="m 0,0 c 0,5.502 -4.46,9.962 -9.962,9.962 -5.503,0 -9.963,-4.46 -9.963,-9.962 0,-5.503 4.46,-9.963 9.963,-9.963 C -4.46,-9.963 0,-5.503 0,0"
             style="fill:#000000;fill-opacity:1;fill-rule:nonzero;stroke:none"
             id="path270" /></g><g
           id="g272"
           transform="translate(1185.9861,400.2921)"><path
             d="m 0,0 c 0,5.502 -4.46,9.962 -9.962,9.962 -5.503,0 -9.963,-4.46 -9.963,-9.962 0,-5.503 4.46,-9.963 9.963,-9.963 C -4.46,-9.963 0,-5.503 0,0 Z"
             style="fill:none;stroke:#2d8ca8;stroke-width:1;stroke-linecap:butt;stroke-linejoin:miter;stroke-miterlimit:10;stroke-dasharray:none;stroke-opacity:1"
             id="path274" /></g><g
           id="g276"
           transform="translate(1185.9861,400.2921)"><path
             d="m 0,0 c 0,5.502 -4.46,9.962 -9.962,9.962 -5.503,0 -9.963,-4.46 -9.963,-9.962 0,-5.503 4.46,-9.963 9.963,-9.963 C -4.46,-9.963 0,-5.503 0,0"
             style="fill:#2f8da9;fill-opacity:1;fill-rule:nonzero;stroke:none"
             id="path278" /></g><g
           id="g280"
           transform="translate(1185.9861,400.2921)"><path
             d="m 0,0 c 0,5.502 -4.46,9.962 -9.962,9.962 -5.503,0 -9.963,-4.46 -9.963,-9.962 0,-5.503 4.46,-9.963 9.963,-9.963 C -4.46,-9.963 0,-5.503 0,0 Z"
             style="fill:none;stroke:#2d8ca8;stroke-width:4.981;stroke-linecap:butt;stroke-linejoin:miter;stroke-miterlimit:10;stroke-dasharray:none;stroke-opacity:1"
             id="path282" /></g><g
           id="g284"
           transform="translate(995.2858,673.376)"><path
             d="m 0,0 c -100.028,-75.347 -120.036,-217.521 -44.689,-317.549 75.347,-100.028 217.521,-120.036 317.549,-44.689 100.029,75.347 120.037,217.521 44.689,317.55 C 262.415,28.51 168.587,61.332 79.847,38.462"
             style="fill:none;stroke:#2d8ca8;stroke-width:4.981;stroke-linecap:butt;stroke-linejoin:miter;stroke-miterlimit:10;stroke-dasharray:none;stroke-opacity:1"
             id="path286" /></g><g
           id="g288"
           transform="translate(1016.2028,625.4171)"><path
             d="m 0,0 c 0,5.502 -4.46,9.963 -9.963,9.963 -5.502,0 -9.963,-4.461 -9.963,-9.963 0,-5.503 4.461,-9.963 9.963,-9.963 C -4.46,-9.963 0,-5.503 0,0"
             style="fill:#000000;fill-opacity:1;fill-rule:nonzero;stroke:none"
             id="path290" /></g><g
           id="g292"
           transform="translate(1016.2028,625.4171)"><path
             d="m 0,0 c 0,5.502 -4.46,9.963 -9.963,9.963 -5.502,0 -9.963,-4.461 -9.963,-9.963 0,-5.503 4.461,-9.963 9.963,-9.963 C -4.46,-9.963 0,-5.503 0,0 Z"
             style="fill:none;stroke:#2d8ca8;stroke-width:1;stroke-linecap:butt;stroke-linejoin:miter;stroke-miterlimit:10;stroke-dasharray:none;stroke-opacity:1"
             id="path294" /></g><g
           id="g296"
           transform="translate(1016.2028,625.4171)"><path
             d="m 0,0 c 0,5.502 -4.46,9.963 -9.963,9.963 -5.502,0 -9.963,-4.461 -9.963,-9.963 0,-5.503 4.461,-9.963 9.963,-9.963 C -4.46,-9.963 0,-5.503 0,0"
             style="fill:#2f8da9;fill-opacity:1;fill-rule:nonzero;stroke:none"
             id="path298" /></g><g
           id="g300"
           transform="translate(1016.2028,625.4171)"><path
             d="m 0,0 c 0,5.502 -4.46,9.963 -9.963,9.963 -5.502,0 -9.963,-4.461 -9.963,-9.963 0,-5.503 4.461,-9.963 9.963,-9.963 C -4.46,-9.963 0,-5.503 0,0 Z"
             style="fill:none;stroke:#2d8ca8;stroke-width:4.981;stroke-linecap:butt;stroke-linejoin:miter;stroke-miterlimit:10;stroke-dasharray:none;stroke-opacity:1"
             id="path302" /></g><g
           id="g304"
           transform="translate(923.5871,551.5303)"><path
             d="m 0,0 c 0,5.502 -4.46,9.963 -9.962,9.963 -5.503,0 -9.963,-4.461 -9.963,-9.963 0,-5.503 4.46,-9.963 9.963,-9.963 C -4.46,-9.963 0,-5.503 0,0"
             style="fill:#000000;fill-opacity:1;fill-rule:nonzero;stroke:none"
             id="path306" /></g><g
           id="g308"
           transform="translate(923.5871,551.5303)"><path
             d="m 0,0 c 0,5.502 -4.46,9.963 -9.962,9.963 -5.503,0 -9.963,-4.461 -9.963,-9.963 0,-5.503 4.46,-9.963 9.963,-9.963 C -4.46,-9.963 0,-5.503 0,0 Z"
             style="fill:none;stroke:#2d8ca8;stroke-width:1;stroke-linecap:butt;stroke-linejoin:miter;stroke-miterlimit:10;stroke-dasharray:none;stroke-opacity:1"
             id="path310" /></g><g
           id="g312"
           transform="translate(923.5871,551.5303)"><path
             d="m 0,0 c 0,5.502 -4.46,9.963 -9.962,9.963 -5.503,0 -9.963,-4.461 -9.963,-9.963 0,-5.503 4.46,-9.963 9.963,-9.963 C -4.46,-9.963 0,-5.503 0,0"
             style="fill:#2f8da9;fill-opacity:1;fill-rule:nonzero;stroke:none"
             id="path314" /></g><g
           id="g316"
           transform="translate(923.5871,551.5303)"><path
             d="m 0,0 c 0,5.502 -4.46,9.963 -9.962,9.963 -5.503,0 -9.963,-4.461 -9.963,-9.963 0,-5.503 4.46,-9.963 9.963,-9.963 C -4.46,-9.963 0,-5.503 0,0 Z"
             style="fill:none;stroke:#2d8ca8;stroke-width:4.981;stroke-linecap:butt;stroke-linejoin:miter;stroke-miterlimit:10;stroke-dasharray:none;stroke-opacity:1"
             id="path318" /></g><g
           id="g320"
           transform="translate(1342.4011,596.4747)"><path
             d="m 0,0 c 0,5.503 -4.461,9.963 -9.963,9.963 -5.503,0 -9.963,-4.46 -9.963,-9.963 0,-5.502 4.46,-9.963 9.963,-9.963 C -4.461,-9.963 0,-5.502 0,0"
             style="fill:#000000;fill-opacity:1;fill-rule:nonzero;stroke:none"
             id="path322" /></g><g
           id="g324"
           transform="translate(1342.4011,596.4747)"><path
             d="m 0,0 c 0,5.503 -4.461,9.963 -9.963,9.963 -5.503,0 -9.963,-4.46 -9.963,-9.963 0,-5.502 4.46,-9.963 9.963,-9.963 C -4.461,-9.963 0,-5.502 0,0 Z"
             style="fill:none;stroke:#2d8ca8;stroke-width:1;stroke-linecap:butt;stroke-linejoin:miter;stroke-miterlimit:10;stroke-dasharray:none;stroke-opacity:1"
             id="path326" /></g><g
           id="g328"
           transform="translate(1342.4011,596.4747)"><path
             d="m 0,0 c 0,5.503 -4.461,9.963 -9.963,9.963 -5.503,0 -9.963,-4.46 -9.963,-9.963 0,-5.502 4.46,-9.963 9.963,-9.963 C -4.461,-9.963 0,-5.502 0,0"
             style="fill:#2f8da9;fill-opacity:1;fill-rule:nonzero;stroke:none"
             id="path330" /></g><g
           id="g332"
           transform="translate(1342.4011,596.4747)"><path
             d="m 0,0 c 0,5.503 -4.461,9.963 -9.963,9.963 -5.503,0 -9.963,-4.46 -9.963,-9.963 0,-5.502 4.46,-9.963 9.963,-9.963 C -4.461,-9.963 0,-5.502 0,0 Z"
             style="fill:none;stroke:#2d8ca8;stroke-width:4.981;stroke-linecap:butt;stroke-linejoin:miter;stroke-miterlimit:10;stroke-dasharray:none;stroke-opacity:1"
             id="path334" /></g><g
           id="g336"
           transform="translate(1006.2399,625.4171)"><path
             d="m 0,0 c -3.451,-125.185 95.236,-229.467 220.421,-232.918 125.185,-3.451 229.467,95.236 232.918,220.421 C 456.79,112.688 358.103,216.97 232.918,220.42 141.313,222.948 57.152,170.05 19.709,86.408"
             style="fill:none;stroke:#2d8ca8;stroke-width:4.981;stroke-linecap:butt;stroke-linejoin:miter;stroke-miterlimit:10;stroke-dasharray:none;stroke-opacity:1"
             id="path338" /></g><g
           id="g340"
           transform="translate(1060.5276,604.0821)"><path
             d="m 0,0 c 0,5.502 -4.46,9.962 -9.962,9.962 -5.503,0 -9.963,-4.46 -9.963,-9.962 0,-5.503 4.46,-9.963 9.963,-9.963 C -4.46,-9.963 0,-5.503 0,0"
             style="fill:#000000;fill-opacity:1;fill-rule:nonzero;stroke:none"
             id="path342" /></g><g
           id="g344"
           transform="translate(1060.5276,604.0821)"><path
             d="m 0,0 c 0,5.502 -4.46,9.962 -9.962,9.962 -5.503,0 -9.963,-4.46 -9.963,-9.962 0,-5.503 4.46,-9.963 9.963,-9.963 C -4.46,-9.963 0,-5.503 0,0 Z"
             style="fill:none;stroke:#2d8ca8;stroke-width:1;stroke-linecap:butt;stroke-linejoin:miter;stroke-miterlimit:10;stroke-dasharray:none;stroke-opacity:1"
             id="path346" /></g><g
           id="g348"
           transform="translate(1060.5276,604.0821)"><path
             d="m 0,0 c 0,5.502 -4.46,9.962 -9.962,9.962 -5.503,0 -9.963,-4.46 -9.963,-9.962 0,-5.503 4.46,-9.963 9.963,-9.963 C -4.46,-9.963 0,-5.503 0,0"
             style="fill:#2f8da9;fill-opacity:1;fill-rule:nonzero;stroke:none"
             id="path350" /></g><g
           id="g352"
           transform="translate(1060.5276,604.0821)"><path
             d="m 0,0 c 0,5.502 -4.46,9.962 -9.962,9.962 -5.503,0 -9.963,-4.46 -9.963,-9.962 0,-5.503 4.46,-9.963 9.963,-9.963 C -4.46,-9.963 0,-5.503 0,0 Z"
             style="fill:none;stroke:#2d8ca8;stroke-width:4.981;stroke-linecap:butt;stroke-linejoin:miter;stroke-miterlimit:10;stroke-dasharray:none;stroke-opacity:1"
             id="path354" /></g><g
           id="g356"
           transform="translate(1060.551,485.6046)"><path
             d="m 0,0 c 0,5.503 -4.46,9.963 -9.962,9.963 -5.503,0 -9.963,-4.46 -9.963,-9.963 0,-5.502 4.46,-9.963 9.963,-9.963 C -4.46,-9.963 0,-5.502 0,0"
             style="fill:#2f8da9;fill-opacity:1;fill-rule:nonzero;stroke:none"
             id="path358" /></g><g
           id="g360"
           transform="translate(1060.551,485.6046)"><path
             d="m 0,0 c 0,5.503 -4.46,9.963 -9.962,9.963 -5.503,0 -9.963,-4.46 -9.963,-9.963 0,-5.502 4.46,-9.963 9.963,-9.963 C -4.46,-9.963 0,-5.502 0,0 Z"
             style="fill:none;stroke:#2d8ca8;stroke-width:1;stroke-linecap:butt;stroke-linejoin:miter;stroke-miterlimit:10;stroke-dasharray:none;stroke-opacity:1"
             id="path362" /></g><g
           id="g364"
           transform="translate(1060.551,485.6046)"><path
             d="m 0,0 c 0,5.503 -4.46,9.963 -9.962,9.963 -5.503,0 -9.963,-4.46 -9.963,-9.963 0,-5.502 4.46,-9.963 9.963,-9.963 C -4.46,-9.963 0,-5.502 0,0 Z"
             style="fill:none;stroke:#2d8ca8;stroke-width:4.981;stroke-linecap:butt;stroke-linejoin:miter;stroke-miterlimit:10;stroke-dasharray:none;stroke-opacity:1"
             id="path366" /></g><g
           id="g368"
           transform="translate(1286.533,841.0704)"><path
             d="m 0,0 c 0,5.502 -4.46,9.962 -9.962,9.962 -5.503,0 -9.963,-4.46 -9.963,-9.962 0,-5.503 4.46,-9.963 9.963,-9.963 C -4.46,-9.963 0,-5.503 0,0"
             style="fill:#2f8da9;fill-opacity:1;fill-rule:nonzero;stroke:none"
             id="path370" /></g><g
           id="g372"
           transform="translate(1286.533,841.0704)"><path
             d="m 0,0 c 0,5.502 -4.46,9.962 -9.962,9.962 -5.503,0 -9.963,-4.46 -9.963,-9.962 0,-5.503 4.46,-9.963 9.963,-9.963 C -4.46,-9.963 0,-5.503 0,0 Z"
             style="fill:none;stroke:#2d8ca8;stroke-width:1;stroke-linecap:butt;stroke-linejoin:miter;stroke-miterlimit:10;stroke-dasharray:none;stroke-opacity:1"
             id="path374" /></g><g
           id="g376"
           transform="translate(1286.533,841.0704)"><path
             d="m 0,0 c 0,5.502 -4.46,9.962 -9.962,9.962 -5.503,0 -9.963,-4.46 -9.963,-9.962 0,-5.503 4.46,-9.963 9.963,-9.963 C -4.46,-9.963 0,-5.503 0,0 Z"
             style="fill:none;stroke:#2d8ca8;stroke-width:4.981;stroke-linecap:butt;stroke-linejoin:miter;stroke-miterlimit:10;stroke-dasharray:none;stroke-opacity:1"
             id="path378" /></g><g
           id="g380"
           transform="translate(1050.5652,604.0821)"><path
             d="m 0,0 c 95.722,-80.749 238.783,-68.609 319.53,27.112 80.749,95.723 68.61,238.784 -27.112,319.532 C 196.695,427.392 53.635,415.252 -27.113,319.53 -86.204,249.486 -97.318,150.706 -55.27,69.282"
             style="fill:none;stroke:#2d8ca8;stroke-width:4.981;stroke-linecap:butt;stroke-linejoin:miter;stroke-miterlimit:10;stroke-dasharray:none;stroke-opacity:1"
             id="path382" /></g><g
           id="g384"
           transform="translate(1093.0208,637.7403)"><path
             d="M 0,0 C -5.19,34.417 -23.066,56.833 -55.467,69.547"
             style="fill:none;stroke:#2d8ca8;stroke-width:4.981;stroke-linecap:butt;stroke-linejoin:miter;stroke-miterlimit:10;stroke-dasharray:none;stroke-opacity:1"
             id="path386" /></g><g
           id="g388"
           transform="translate(1022.2746,699.9112)"><path
             d="M 0,0 C -10.217,-33.125 -3.795,-61.253 19.784,-86.665"
             style="fill:none;stroke:#2d8ca8;stroke-width:4.981;stroke-linecap:butt;stroke-linejoin:miter;stroke-miterlimit:10;stroke-dasharray:none;stroke-opacity:1"
             id="path390" /></g><g
           id="g392"
           transform="translate(1059.0667,613.2462)"><path
             d="M 0,0 C 23.573,25.418 29.987,53.548 19.761,86.672"
             style="fill:none;stroke:#2d8ca8;stroke-width:4.981;stroke-linecap:butt;stroke-linejoin:miter;stroke-miterlimit:10;stroke-dasharray:none;stroke-opacity:1"
             id="path394" /></g><g
           id="g396"
           transform="translate(1063.5442,707.2901)"><path
             d="M 0,0 C -32.396,-12.722 -50.269,-35.142 -55.45,-69.558"
             style="fill:none;stroke:#2d8ca8;stroke-width:4.981;stroke-linecap:butt;stroke-linejoin:miter;stroke-miterlimit:10;stroke-dasharray:none;stroke-opacity:1"
             id="path398" /></g><g
           id="g400"
           transform="translate(1018.6633,624.4874)"><path
             d="M 0,0 C 34.694,-2.596 60.541,9.854 80.137,38.603"
             style="fill:none;stroke:#2d8ca8;stroke-width:4.981;stroke-linecap:butt;stroke-linejoin:miter;stroke-miterlimit:10;stroke-dasharray:none;stroke-opacity:1"
             id="path402" /></g><g
           id="g404"
           transform="translate(1095.0002,679.6329)"><path
             d="M 0,0 C -30.023,17.331 -58.874,17.327 -88.895,-0.009"
             style="fill:none;stroke:#2d8ca8;stroke-width:4.981;stroke-linecap:butt;stroke-linejoin:miter;stroke-miterlimit:10;stroke-dasharray:none;stroke-opacity:1"
             id="path406" /></g><g
           id="g408"
           transform="translate(1002.3083,663.0782)"><path
             d="M 0,0 C 19.603,-28.744 45.452,-41.188 80.147,-38.585"
             style="fill:none;stroke:#2d8ca8;stroke-width:4.981;stroke-linecap:butt;stroke-linejoin:miter;stroke-miterlimit:10;stroke-dasharray:none;stroke-opacity:1"
             id="path410" /></g><text
           xml:space="preserve"
           style="font-style:normal;font-variant:normal;font-weight:normal;font-stretch:normal;font-size:1074.45px;line-height:normal;font-family:'Myriad Pro';-inkscape-font-specification:MyriadPro-Regular;font-variant-ligatures:normal;font-variant-position:normal;font-variant-caps:normal;font-variant-numeric:normal;font-variant-alternates:normal;font-variant-east-asian:normal;font-feature-settings:normal;font-variation-settings:normal;text-indent:0;text-align:start;text-decoration:none;text-decoration-line:none;text-decoration-style:solid;text-decoration-color:#000000;letter-spacing:normal;word-spacing:normal;text-transform:none;writing-mode:lr-tb;direction:ltr;text-orientation:mixed;dominant-baseline:auto;baseline-shift:baseline;text-anchor:start;white-space:normal;shape-padding:0;shape-margin:0;inline-size:0;opacity:1;vector-effect:none;fill:#1e64c8;fill-opacity:1;stroke:none;stroke-width:0.906427;stroke-linecap:butt;stroke-linejoin:miter;stroke-miterlimit:4;stroke-dasharray:none;stroke-dashoffset:0;stroke-opacity:1;stop-color:#000000;stop-opacity:1"
           x="225.48022"
           y="-2229.0789"
           id="text1439"
           transform="matrix(0.89957053,0,0,-1,-113.90129,-788.81546)"><tspan
             id="tspan1437"
             x="225.48022"
             y="-2229.0789"
             style="font-style:normal;font-variant:normal;font-weight:normal;font-stretch:normal;font-size:1074.45px;line-height:normal;font-family:'Myriad Pro';-inkscape-font-specification:MyriadPro-Regular;font-variant-ligatures:normal;font-variant-position:normal;font-variant-caps:normal;font-variant-numeric:normal;font-variant-alternates:normal;font-variant-east-asian:normal;font-feature-settings:normal;font-variation-settings:normal;text-indent:0;text-align:start;text-decoration:none;text-decoration-line:none;text-decoration-style:solid;text-decoration-color:#000000;letter-spacing:normal;word-spacing:normal;text-transform:none;writing-mode:lr-tb;direction:ltr;text-orientation:mixed;dominant-baseline:auto;baseline-shift:baseline;text-anchor:start;white-space:normal;shape-padding:0;shape-margin:0;inline-size:0;vector-effect:none;fill:#1e64c8;fill-opacity:1;stroke:none;stroke-width:0.906427;stroke-linecap:butt;stroke-linejoin:miter;stroke-miterlimit:4;stroke-dasharray:none;stroke-dashoffset:0;stroke-opacity:1;stop-color:#000000;stop-opacity:1"
             sodipodi:role="line">WG</tspan></text><text
           transform="scale(0.93153644,-1.0734953)"
           style="font-variant:normal;font-weight:normal;font-stretch:normal;font-size:1137.65px;font-family:'Myriad Pro';-inkscape-font-specification:MyriadPro-Regular;writing-mode:lr-tb;fill:#2d8ca8;fill-opacity:1;fill-rule:nonzero;stroke:none;stroke-width:0.931536"
           id="text1443"
           x="1475.1284"
           y="-251.83054"><tspan
             x="1475.1284"
             y="-251.83054"
             id="tspan1441"
             style="stroke-width:0.931536">2</tspan></text><text
           transform="scale(0.93153644,-1.0734953)"
           style="font-variant:normal;font-weight:normal;font-stretch:normal;font-size:1137.65px;font-family:'Myriad Pro';-inkscape-font-specification:MyriadPro-Regular;writing-mode:lr-tb;fill:#2d8ca8;fill-opacity:1;fill-rule:nonzero;stroke:none;stroke-width:0.931536"
           id="text1447"
           x="2163.9678"
           y="-255.63783"><tspan
             x="2163.9678"
             y="-255.63783"
             id="tspan1445"
             style="stroke-width:0.931536">6</tspan></text></g></g></g></svg>
