<?xml version="1.0" encoding="UTF-8" standalone="no"?>
<svg
   version="1.1"
   id="svg2"
   xml:space="preserve"
   width="1000.0015mm"
   height="750mm"
   viewBox="0 0 3779.533 2834.6456"
   sodipodi:docname="logoWG2026.svg"
   inkscape:version="1.4 (e7c3feb1, 2024-10-09)"
   inkscape:export-filename="logoWG2026.png"
   inkscape:export-xdpi="5.0799999"
   inkscape:export-ydpi="5.0799999"
   xmlns:inkscape="http://www.inkscape.org/namespaces/inkscape"
   xmlns:sodipodi="http://sodipodi.sourceforge.net/DTD/sodipodi-0.dtd"
   xmlns="http://www.w3.org/2000/svg"
   xmlns:svg="http://www.w3.org/2000/svg"
   xmlns:rdf="http://www.w3.org/1999/02/22-rdf-syntax-ns#"
   xmlns:cc="http://creativecommons.org/ns#"
   xmlns:dc="http://purl.org/dc/elements/1.1/"><metadata
     id="metadata8"><rdf:RDF><cc:Work
         rdf:about=""><dc:format>image/svg+xml</dc:format><dc:type
           rdf:resource="http://purl.org/dc/dcmitype/StillImage" /><dc:title /></cc:Work></rdf:RDF></metadata><defs
     id="defs6"><clipPath
       clipPathUnits="userSpaceOnUse"
       id="clipPath18"><path
         d="M 0,2485.43 H 2834.646 V 0 H 0 Z"
         id="path16" /></clipPath></defs><sodipodi:namedview
     pagecolor="#ffffff"
     bordercolor="#666666"
     borderopacity="1"
     objecttolerance="10"
     gridtolerance="10"
     guidetolerance="10"
     inkscape:pageopacity="0"
     inkscape:pageshadow="2"
     inkscape:window-width="2288"
     inkscape:window-height="1259"
     id="namedview4"
     showgrid="false"
     inkscape:zoom="0.3550703"
     inkscape:cx="1951.7262"
     inkscape:cy="1746.1331"
     inkscape:window-x="0"
     inkscape:window-y="25"
     inkscape:window-maximized="0"
     inkscape:current-layer="g1217"
     inkscape:document-rotation="0"
     units="mm"
     inkscape:showpageshadow="2"
     inkscape:pagecheckerboard="0"
     inkscape:deskcolor="#d1d1d1"
     inkscape:document-units="mm" /><g
     id="g10"
     inkscape:groupmode="layer"
     inkscape:label="logo_color 2019"
     transform="matrix(1.3333333,0,0,-1.3333333,0,3313.9067)"><g
       id="g12"><g
         id="g1217"
         transform="translate(32.261283,175.0182)"><text
   transform="scale(0.93153644,-1.0734953)"
   style="font-variant:normal;font-weight:normal;font-stretch:normal;font-size:1049.7px;font-family:'Myriad Pro';-inkscape-font-specification:MyriadPro-Regular;writing-mode:lr-tb;fill:#2d8ca8;fill-opacity:1;fill-rule:nonzero;stroke:none;stroke-width:0.85952"
   id="text42"
   x="189.18513"
   y="-219.01845"><tspan
     x="189.18513"
     y="-219.01845"
     id="tspan40"
     style="stroke-width:0.85952">2</tspan></text>
<g
   id="g44"
   transform="matrix(0.922691,0,0,0.922691,1115.6704,562.74991)"><path
     d="m 0,0 c 0,5.503 -4.46,9.963 -9.963,9.963 -5.502,0 -9.963,-4.46 -9.963,-9.963 0,-5.502 4.461,-9.963 9.963,-9.963 C -4.46,-9.963 0,-5.502 0,0"
     style="fill:#2f8da9;fill-opacity:1;fill-rule:nonzero;stroke:none"
     id="path46"
     inkscape:connector-curvature="0" /></g><g
   id="g48"
   transform="matrix(0.922691,0,0,0.922691,1115.6704,562.74991)"><path
     d="m 0,0 c 0,5.503 -4.46,9.963 -9.963,9.963 -5.502,0 -9.963,-4.46 -9.963,-9.963 0,-5.502 4.461,-9.963 9.963,-9.963 C -4.46,-9.963 0,-5.502 0,0 Z"
     style="fill:none;stroke:#2d8ca8;stroke-width:1;stroke-linecap:butt;stroke-linejoin:miter;stroke-miterlimit:10;stroke-dasharray:none;stroke-opacity:1"
     id="path50"
     inkscape:connector-curvature="0" /></g><g
   id="g52"
   transform="matrix(0.922691,0,0,0.922691,1115.6704,562.74991)"><path
     d="m 0,0 c 0,5.503 -4.46,9.963 -9.963,9.963 -5.502,0 -9.963,-4.46 -9.963,-9.963 0,-5.502 4.461,-9.963 9.963,-9.963 C -4.46,-9.963 0,-5.502 0,0 Z"
     style="fill:none;stroke:#2d8ca8;stroke-width:4.98099995;stroke-linecap:butt;stroke-linejoin:miter;stroke-miterlimit:10;stroke-dasharray:none;stroke-opacity:1"
     id="path54"
     inkscape:connector-curvature="0" /></g><g
   id="g56"
   transform="matrix(0.922691,0,0,0.922691,1201.1455,494.59147)"><path
     d="m 0,0 c 0,5.502 -4.46,9.963 -9.963,9.963 -5.502,0 -9.963,-4.461 -9.963,-9.963 0,-5.502 4.461,-9.963 9.963,-9.963 C -4.46,-9.963 0,-5.502 0,0"
     style="fill:#000000;fill-opacity:1;fill-rule:nonzero;stroke:none"
     id="path58"
     inkscape:connector-curvature="0" /></g><g
   id="g60"
   transform="matrix(0.922691,0,0,0.922691,1201.1455,494.59147)"><path
     d="m 0,0 c 0,5.502 -4.46,9.963 -9.963,9.963 -5.502,0 -9.963,-4.461 -9.963,-9.963 0,-5.502 4.461,-9.963 9.963,-9.963 C -4.46,-9.963 0,-5.502 0,0 Z"
     style="fill:none;stroke:#2d8ca8;stroke-width:1;stroke-linecap:butt;stroke-linejoin:miter;stroke-miterlimit:10;stroke-dasharray:none;stroke-opacity:1"
     id="path62"
     inkscape:connector-curvature="0" /></g><g
   id="g64"
   transform="matrix(0.922691,0,0,0.922691,1201.1455,494.59147)"><path
     d="m 0,0 c 0,5.502 -4.46,9.963 -9.963,9.963 -5.502,0 -9.963,-4.461 -9.963,-9.963 0,-5.502 4.461,-9.963 9.963,-9.963 C -4.46,-9.963 0,-5.502 0,0"
     style="fill:#2f8da9;fill-opacity:1;fill-rule:nonzero;stroke:none"
     id="path66"
     inkscape:connector-curvature="0" /></g><g
   id="g68"
   transform="matrix(0.922691,0,0,0.922691,1201.1455,494.59147)"><path
     d="m 0,0 c 0,5.502 -4.46,9.963 -9.963,9.963 -5.502,0 -9.963,-4.461 -9.963,-9.963 0,-5.502 4.461,-9.963 9.963,-9.963 C -4.46,-9.963 0,-5.502 0,0 Z"
     style="fill:none;stroke:#2d8ca8;stroke-width:4.98099995;stroke-linecap:butt;stroke-linejoin:miter;stroke-miterlimit:10;stroke-dasharray:none;stroke-opacity:1"
     id="path70"
     inkscape:connector-curvature="0" /></g><g
   id="g72"
   transform="matrix(0.922691,0,0,0.922691,1074.7732,862.14637)"><path
     d="m 0,0 c 0,5.502 -4.46,9.963 -9.963,9.963 -5.502,0 -9.963,-4.461 -9.963,-9.963 0,-5.502 4.461,-9.963 9.963,-9.963 C -4.46,-9.963 0,-5.502 0,0"
     style="fill:#2f8da9;fill-opacity:1;fill-rule:nonzero;stroke:none"
     id="path74"
     inkscape:connector-curvature="0" /></g><g
   id="g76"
   transform="matrix(0.922691,0,0,0.922691,1074.7732,862.14637)"><path
     d="m 0,0 c 0,5.502 -4.46,9.963 -9.963,9.963 -5.502,0 -9.963,-4.461 -9.963,-9.963 0,-5.502 4.461,-9.963 9.963,-9.963 C -4.46,-9.963 0,-5.502 0,0 Z"
     style="fill:none;stroke:#2d8ca8;stroke-width:1;stroke-linecap:butt;stroke-linejoin:miter;stroke-miterlimit:10;stroke-dasharray:none;stroke-opacity:1"
     id="path78"
     inkscape:connector-curvature="0" /></g><g
   id="g80"
   transform="matrix(0.922691,0,0,0.922691,1074.7732,862.14637)"><path
     d="m 0,0 c 0,5.502 -4.46,9.963 -9.963,9.963 -5.502,0 -9.963,-4.461 -9.963,-9.963 0,-5.502 4.461,-9.963 9.963,-9.963 C -4.46,-9.963 0,-5.502 0,0 Z"
     style="fill:none;stroke:#2d8ca8;stroke-width:4.98099995;stroke-linecap:butt;stroke-linejoin:miter;stroke-miterlimit:10;stroke-dasharray:none;stroke-opacity:1"
     id="path82"
     inkscape:connector-curvature="0" /></g><g
   id="g84"
   transform="matrix(0.922691,0,0,0.922691,1106.4779,562.74991)"><path
     d="M 0,0 C 122.824,24.475 202.552,143.887 178.078,266.71 153.603,389.533 34.191,469.262 -88.632,444.788 -211.456,420.313 -291.185,300.901 -266.71,178.078 -248.803,88.2 -178.51,17.907 -88.632,0"
     style="fill:none;stroke:#2d8ca8;stroke-width:4.98099995;stroke-linecap:butt;stroke-linejoin:miter;stroke-miterlimit:10;stroke-dasharray:none;stroke-opacity:1"
     id="path86"
     inkscape:connector-curvature="0" /></g><g
   id="g88"
   transform="matrix(0.922691,0,0,0.922691,1125.7659,607.00486)"><path
     d="m 0,0 c 0,5.502 -4.46,9.963 -9.962,9.963 -5.503,0 -9.963,-4.461 -9.963,-9.963 0,-5.502 4.46,-9.963 9.963,-9.963 C -4.46,-9.963 0,-5.502 0,0"
     style="fill:#000000;fill-opacity:1;fill-rule:nonzero;stroke:none"
     id="path90"
     inkscape:connector-curvature="0" /></g><g
   id="g92"
   transform="matrix(0.922691,0,0,0.922691,1125.7659,607.00486)"><path
     d="m 0,0 c 0,5.502 -4.46,9.963 -9.962,9.963 -5.503,0 -9.963,-4.461 -9.963,-9.963 0,-5.502 4.46,-9.963 9.963,-9.963 C -4.46,-9.963 0,-5.502 0,0 Z"
     style="fill:none;stroke:#2d8ca8;stroke-width:1;stroke-linecap:butt;stroke-linejoin:miter;stroke-miterlimit:10;stroke-dasharray:none;stroke-opacity:1"
     id="path94"
     inkscape:connector-curvature="0" /></g><g
   id="g96"
   transform="matrix(0.922691,0,0,0.922691,1125.7659,607.00486)"><path
     d="m 0,0 c 0,5.502 -4.46,9.963 -9.962,9.963 -5.503,0 -9.963,-4.461 -9.963,-9.963 0,-5.502 4.46,-9.963 9.963,-9.963 C -4.46,-9.963 0,-5.502 0,0"
     style="fill:#2f8da9;fill-opacity:1;fill-rule:nonzero;stroke:none"
     id="path98"
     inkscape:connector-curvature="0" /></g><g
   id="g100"
   transform="matrix(0.922691,0,0,0.922691,1125.7659,607.00486)"><path
     d="m 0,0 c 0,5.502 -4.46,9.963 -9.962,9.963 -5.503,0 -9.963,-4.461 -9.963,-9.963 0,-5.502 4.46,-9.963 9.963,-9.963 C -4.46,-9.963 0,-5.502 0,0 Z"
     style="fill:none;stroke:#2d8ca8;stroke-width:4.98099995;stroke-linecap:butt;stroke-linejoin:miter;stroke-miterlimit:10;stroke-dasharray:none;stroke-opacity:1"
     id="path102"
     inkscape:connector-curvature="0" /></g><g
   id="g104"
   transform="matrix(0.922691,0,0,0.922691,1232.3409,631.33805)"><path
     d="m 0,0 c 0,5.503 -4.46,9.963 -9.962,9.963 -5.503,0 -9.963,-4.46 -9.963,-9.963 0,-5.502 4.46,-9.962 9.963,-9.962 C -4.46,-9.962 0,-5.502 0,0"
     style="fill:#000000;fill-opacity:1;fill-rule:nonzero;stroke:none"
     id="path106"
     inkscape:connector-curvature="0" /></g><g
   id="g108"
   transform="matrix(0.922691,0,0,0.922691,1232.3409,631.33805)"><path
     d="m 0,0 c 0,5.503 -4.46,9.963 -9.962,9.963 -5.503,0 -9.963,-4.46 -9.963,-9.963 0,-5.502 4.46,-9.962 9.963,-9.962 C -4.46,-9.962 0,-5.502 0,0 Z"
     style="fill:none;stroke:#2d8ca8;stroke-width:1;stroke-linecap:butt;stroke-linejoin:miter;stroke-miterlimit:10;stroke-dasharray:none;stroke-opacity:1"
     id="path110"
     inkscape:connector-curvature="0" /></g><g
   id="g112"
   transform="matrix(0.922691,0,0,0.922691,1232.3409,631.33805)"><path
     d="m 0,0 c 0,5.503 -4.46,9.963 -9.962,9.963 -5.503,0 -9.963,-4.46 -9.963,-9.963 0,-5.502 4.46,-9.962 9.963,-9.962 C -4.46,-9.962 0,-5.502 0,0"
     style="fill:#2f8da9;fill-opacity:1;fill-rule:nonzero;stroke:none"
     id="path114"
     inkscape:connector-curvature="0" /></g><g
   id="g116"
   transform="matrix(0.922691,0,0,0.922691,1232.3409,631.33805)"><path
     d="m 0,0 c 0,5.503 -4.46,9.963 -9.962,9.963 -5.503,0 -9.963,-4.46 -9.963,-9.963 0,-5.502 4.46,-9.962 9.963,-9.962 C -4.46,-9.962 0,-5.502 0,0 Z"
     style="fill:none;stroke:#2d8ca8;stroke-width:4.98099995;stroke-linecap:butt;stroke-linejoin:miter;stroke-miterlimit:10;stroke-dasharray:none;stroke-opacity:1"
     id="path118"
     inkscape:connector-curvature="0" /></g><g
   id="g120"
   transform="matrix(0.922691,0,0,0.922691,866.19739,761.68272)"><path
     d="m 0,0 c 0,5.502 -4.46,9.963 -9.963,9.963 -5.502,0 -9.963,-4.461 -9.963,-9.963 0,-5.502 4.461,-9.963 9.963,-9.963 C -4.46,-9.963 0,-5.502 0,0"
     style="fill:#2f8da9;fill-opacity:1;fill-rule:nonzero;stroke:none"
     id="path122"
     inkscape:connector-curvature="0" /></g><g
   id="g124"
   transform="matrix(0.922691,0,0,0.922691,866.19739,761.68272)"><path
     d="m 0,0 c 0,5.502 -4.46,9.963 -9.963,9.963 -5.502,0 -9.963,-4.461 -9.963,-9.963 0,-5.502 4.461,-9.963 9.963,-9.963 C -4.46,-9.963 0,-5.502 0,0 Z"
     style="fill:none;stroke:#2d8ca8;stroke-width:1;stroke-linecap:butt;stroke-linejoin:miter;stroke-miterlimit:10;stroke-dasharray:none;stroke-opacity:1"
     id="path126"
     inkscape:connector-curvature="0" /></g><g
   id="g128"
   transform="matrix(0.922691,0,0,0.922691,866.19739,761.68272)"><path
     d="m 0,0 c 0,5.502 -4.46,9.963 -9.963,9.963 -5.502,0 -9.963,-4.461 -9.963,-9.963 0,-5.502 4.461,-9.963 9.963,-9.963 C -4.46,-9.963 0,-5.502 0,0"
     style="fill:#2f8da9;fill-opacity:1;fill-rule:nonzero;stroke:none"
     id="path130"
     inkscape:connector-curvature="0" /></g><g
   id="g132"
   transform="matrix(0.922691,0,0,0.922691,866.19739,761.68272)"><path
     d="m 0,0 c 0,5.502 -4.46,9.963 -9.963,9.963 -5.502,0 -9.963,-4.461 -9.963,-9.963 0,-5.502 4.461,-9.963 9.963,-9.963 C -4.46,-9.963 0,-5.502 0,0 Z"
     style="fill:none;stroke:#2d8ca8;stroke-width:1;stroke-linecap:butt;stroke-linejoin:miter;stroke-miterlimit:10;stroke-dasharray:none;stroke-opacity:1"
     id="path134"
     inkscape:connector-curvature="0" /></g><g
   id="g136"
   transform="matrix(0.922691,0,0,0.922691,1116.5738,607.00486)"><path
     d="m 0,0 c 57.437,111.283 13.784,248.061 -97.499,305.498 -111.284,57.437 -248.061,13.785 -305.498,-97.499 -57.437,-111.283 -13.785,-248.062 97.499,-305.498 81.432,-42.032 180.209,-30.899 250.242,28.205"
     style="fill:none;stroke:#2d8ca8;stroke-width:4.98099995;stroke-linecap:butt;stroke-linejoin:miter;stroke-miterlimit:10;stroke-dasharray:none;stroke-opacity:1"
     id="path138"
     inkscape:connector-curvature="0" /></g><g
   id="g140"
   transform="matrix(0.922691,0,0,0.922691,1097.4643,642.48969)"><path
     d="m 0,0 c 0,5.503 -4.46,9.963 -9.963,9.963 -5.502,0 -9.962,-4.46 -9.962,-9.963 0,-5.502 4.46,-9.963 9.962,-9.963 C -4.46,-9.963 0,-5.502 0,0"
     style="fill:#000000;fill-opacity:1;fill-rule:nonzero;stroke:none"
     id="path142"
     inkscape:connector-curvature="0" /></g><g
   id="g144"
   transform="matrix(0.922691,0,0,0.922691,1097.4643,642.48969)"><path
     d="m 0,0 c 0,5.503 -4.46,9.963 -9.963,9.963 -5.502,0 -9.962,-4.46 -9.962,-9.963 0,-5.502 4.46,-9.963 9.962,-9.963 C -4.46,-9.963 0,-5.502 0,0 Z"
     style="fill:none;stroke:#2d8ca8;stroke-width:1;stroke-linecap:butt;stroke-linejoin:miter;stroke-miterlimit:10;stroke-dasharray:none;stroke-opacity:1"
     id="path146"
     inkscape:connector-curvature="0" /></g><g
   id="g148"
   transform="matrix(0.922691,0,0,0.922691,1097.4643,642.48969)"><path
     d="m 0,0 c 0,5.503 -4.46,9.963 -9.963,9.963 -5.502,0 -9.962,-4.46 -9.962,-9.963 0,-5.502 4.46,-9.963 9.962,-9.963 C -4.46,-9.963 0,-5.502 0,0"
     style="fill:#2f8da9;fill-opacity:1;fill-rule:nonzero;stroke:none"
     id="path150"
     inkscape:connector-curvature="0" /></g><g
   id="g152"
   transform="matrix(0.922691,0,0,0.922691,1097.4643,642.48969)"><path
     d="m 0,0 c 0,5.503 -4.46,9.963 -9.963,9.963 -5.502,0 -9.962,-4.46 -9.962,-9.963 0,-5.502 4.46,-9.963 9.962,-9.963 C -4.46,-9.963 0,-5.502 0,0 Z"
     style="fill:none;stroke:#2d8ca8;stroke-width:4.98099995;stroke-linecap:butt;stroke-linejoin:miter;stroke-miterlimit:10;stroke-dasharray:none;stroke-opacity:1"
     id="path154"
     inkscape:connector-curvature="0" /></g><g
   id="g156"
   transform="matrix(0.922691,0,0,0.922691,1144.8888,740.98706)"><path
     d="m 0,0 c 0,5.502 -4.46,9.963 -9.963,9.963 -5.502,0 -9.963,-4.461 -9.963,-9.963 0,-5.503 4.461,-9.963 9.963,-9.963 C -4.46,-9.963 0,-5.503 0,0"
     style="fill:#2f8da9;fill-opacity:1;fill-rule:nonzero;stroke:none"
     id="path158"
     inkscape:connector-curvature="0" /></g><g
   id="g160"
   transform="matrix(0.922691,0,0,0.922691,1144.8888,740.98706)"><path
     d="m 0,0 c 0,5.502 -4.46,9.963 -9.963,9.963 -5.502,0 -9.963,-4.461 -9.963,-9.963 0,-5.503 4.461,-9.963 9.963,-9.963 C -4.46,-9.963 0,-5.503 0,0 Z"
     style="fill:none;stroke:#2d8ca8;stroke-width:1;stroke-linecap:butt;stroke-linejoin:miter;stroke-miterlimit:10;stroke-dasharray:none;stroke-opacity:1"
     id="path162"
     inkscape:connector-curvature="0" /></g><g
   id="g164"
   transform="matrix(0.922691,0,0,0.922691,1144.8888,740.98706)"><path
     d="m 0,0 c 0,5.502 -4.46,9.963 -9.963,9.963 -5.502,0 -9.963,-4.461 -9.963,-9.963 0,-5.503 4.461,-9.963 9.963,-9.963 C -4.46,-9.963 0,-5.503 0,0 Z"
     style="fill:none;stroke:#2d8ca8;stroke-width:4.98099995;stroke-linecap:butt;stroke-linejoin:miter;stroke-miterlimit:10;stroke-dasharray:none;stroke-opacity:1"
     id="path166"
     inkscape:connector-curvature="0" /></g><g
   id="g168"
   transform="matrix(0.922691,0,0,0.922691,814.68929,535.98911)"><path
     d="m 0,0 c 0,5.502 -4.46,9.963 -9.963,9.963 -5.502,0 -9.963,-4.461 -9.963,-9.963 0,-5.502 4.461,-9.963 9.963,-9.963 C -4.46,-9.963 0,-5.502 0,0"
     style="fill:#2f8da9;fill-opacity:1;fill-rule:nonzero;stroke:none"
     id="path170"
     inkscape:connector-curvature="0" /></g><g
   id="g172"
   transform="matrix(0.922691,0,0,0.922691,814.68929,535.98911)"><path
     d="m 0,0 c 0,5.502 -4.46,9.963 -9.963,9.963 -5.502,0 -9.963,-4.461 -9.963,-9.963 0,-5.502 4.461,-9.963 9.963,-9.963 C -4.46,-9.963 0,-5.502 0,0 Z"
     style="fill:none;stroke:#2d8ca8;stroke-width:1;stroke-linecap:butt;stroke-linejoin:miter;stroke-miterlimit:10;stroke-dasharray:none;stroke-opacity:1"
     id="path174"
     inkscape:connector-curvature="0" /></g><g
   id="g176"
   transform="matrix(0.922691,0,0,0.922691,814.68929,535.98911)"><path
     d="m 0,0 c 0,5.502 -4.46,9.963 -9.963,9.963 -5.502,0 -9.963,-4.461 -9.963,-9.963 0,-5.502 4.461,-9.963 9.963,-9.963 C -4.46,-9.963 0,-5.502 0,0"
     style="fill:#2f8da9;fill-opacity:1;fill-rule:nonzero;stroke:none"
     id="path178"
     inkscape:connector-curvature="0" /></g><g
   id="g180"
   transform="matrix(0.922691,0,0,0.922691,814.68929,535.98911)"><path
     d="m 0,0 c 0,5.502 -4.46,9.963 -9.963,9.963 -5.502,0 -9.963,-4.461 -9.963,-9.963 0,-5.502 4.461,-9.963 9.963,-9.963 C -4.46,-9.963 0,-5.502 0,0 Z"
     style="fill:none;stroke:#2d8ca8;stroke-width:1;stroke-linecap:butt;stroke-linejoin:miter;stroke-miterlimit:10;stroke-dasharray:none;stroke-opacity:1"
     id="path182"
     inkscape:connector-curvature="0" /></g><g
   id="g184"
   transform="matrix(0.922691,0,0,0.922691,1088.2716,642.48969)"><path
     d="m 0,0 c -51.194,114.292 -185.35,165.443 -299.642,114.249 -114.292,-51.194 -165.444,-185.351 -114.249,-299.643 51.194,-114.291 185.35,-165.443 299.642,-114.249 83.636,37.46 136.519,121.631 133.974,213.237"
     style="fill:none;stroke:#2d8ca8;stroke-width:4.98099995;stroke-linecap:butt;stroke-linejoin:miter;stroke-miterlimit:10;stroke-dasharray:none;stroke-opacity:1"
     id="path186"
     inkscape:connector-curvature="0" /></g><g
   id="g188"
   transform="matrix(0.922691,0,0,0.922691,1052.0727,642.48428)"><path
     d="m 0,0 c 0,5.502 -4.46,9.963 -9.962,9.963 -5.503,0 -9.963,-4.461 -9.963,-9.963 0,-5.503 4.46,-9.963 9.963,-9.963 C -4.46,-9.963 0,-5.503 0,0"
     style="fill:#000000;fill-opacity:1;fill-rule:nonzero;stroke:none"
     id="path190"
     inkscape:connector-curvature="0" /></g><g
   id="g192"
   transform="matrix(0.922691,0,0,0.922691,1052.0727,642.48428)"><path
     d="m 0,0 c 0,5.502 -4.46,9.963 -9.962,9.963 -5.503,0 -9.963,-4.461 -9.963,-9.963 0,-5.503 4.46,-9.963 9.963,-9.963 C -4.46,-9.963 0,-5.503 0,0 Z"
     style="fill:none;stroke:#2d8ca8;stroke-width:1;stroke-linecap:butt;stroke-linejoin:miter;stroke-miterlimit:10;stroke-dasharray:none;stroke-opacity:1"
     id="path194"
     inkscape:connector-curvature="0" /></g><g
   id="g196"
   transform="matrix(0.922691,0,0,0.922691,1052.0727,642.48428)"><path
     d="m 0,0 c 0,5.502 -4.46,9.963 -9.962,9.963 -5.503,0 -9.963,-4.461 -9.963,-9.963 0,-5.503 4.46,-9.963 9.963,-9.963 C -4.46,-9.963 0,-5.503 0,0"
     style="fill:#2f8da9;fill-opacity:1;fill-rule:nonzero;stroke:none"
     id="path198"
     inkscape:connector-curvature="0" /></g><g
   id="g200"
   transform="matrix(0.922691,0,0,0.922691,1052.0727,642.48428)"><path
     d="m 0,0 c 0,5.502 -4.46,9.963 -9.962,9.963 -5.503,0 -9.963,-4.461 -9.963,-9.963 0,-5.503 4.46,-9.963 9.963,-9.963 C -4.46,-9.963 0,-5.503 0,0 Z"
     style="fill:none;stroke:#2d8ca8;stroke-width:4.98099995;stroke-linecap:butt;stroke-linejoin:miter;stroke-miterlimit:10;stroke-dasharray:none;stroke-opacity:1"
     id="path202"
     inkscape:connector-curvature="0" /></g><g
   id="g204"
   transform="matrix(0.922691,0,0,0.922691,1004.6293,740.96883)"><path
     d="m 0,0 c 0,5.502 -4.46,9.963 -9.963,9.963 -5.502,0 -9.963,-4.461 -9.963,-9.963 0,-5.502 4.461,-9.963 9.963,-9.963 C -4.46,-9.963 0,-5.502 0,0"
     style="fill:#000000;fill-opacity:1;fill-rule:nonzero;stroke:none"
     id="path206"
     inkscape:connector-curvature="0" /></g><g
   id="g208"
   transform="matrix(0.922691,0,0,0.922691,1004.6293,740.96883)"><path
     d="m 0,0 c 0,5.502 -4.46,9.963 -9.963,9.963 -5.502,0 -9.963,-4.461 -9.963,-9.963 0,-5.502 4.461,-9.963 9.963,-9.963 C -4.46,-9.963 0,-5.502 0,0 Z"
     style="fill:none;stroke:#2d8ca8;stroke-width:1;stroke-linecap:butt;stroke-linejoin:miter;stroke-miterlimit:10;stroke-dasharray:none;stroke-opacity:1"
     id="path210"
     inkscape:connector-curvature="0" /></g><g
   id="g212"
   transform="matrix(0.922691,0,0,0.922691,1004.6293,740.96883)"><path
     d="m 0,0 c 0,5.502 -4.46,9.963 -9.963,9.963 -5.502,0 -9.963,-4.461 -9.963,-9.963 0,-5.502 4.461,-9.963 9.963,-9.963 C -4.46,-9.963 0,-5.502 0,0"
     style="fill:#2f8da9;fill-opacity:1;fill-rule:nonzero;stroke:none"
     id="path214"
     inkscape:connector-curvature="0" /></g><g
   id="g216"
   transform="matrix(0.922691,0,0,0.922691,1004.6293,740.96883)"><path
     d="m 0,0 c 0,5.502 -4.46,9.963 -9.963,9.963 -5.502,0 -9.963,-4.461 -9.963,-9.963 0,-5.502 4.461,-9.963 9.963,-9.963 C -4.46,-9.963 0,-5.502 0,0 Z"
     style="fill:none;stroke:#2d8ca8;stroke-width:4.98099995;stroke-linecap:butt;stroke-linejoin:miter;stroke-miterlimit:10;stroke-dasharray:none;stroke-opacity:1"
     id="path218"
     inkscape:connector-curvature="0" /></g><g
   id="g220"
   transform="matrix(0.922691,0,0,0.922691,959.04799,355.00115)"><path
     d="m 0,0 c 0,5.502 -4.46,9.963 -9.962,9.963 -5.503,0 -9.963,-4.461 -9.963,-9.963 0,-5.502 4.46,-9.963 9.963,-9.963 C -4.46,-9.963 0,-5.502 0,0"
     style="fill:#2f8da9;fill-opacity:1;fill-rule:nonzero;stroke:none"
     id="path222"
     inkscape:connector-curvature="0" /></g><g
   id="g224"
   transform="matrix(0.922691,0,0,0.922691,959.04799,355.00115)"><path
     d="m 0,0 c 0,5.502 -4.46,9.963 -9.962,9.963 -5.503,0 -9.963,-4.461 -9.963,-9.963 0,-5.502 4.46,-9.963 9.963,-9.963 C -4.46,-9.963 0,-5.502 0,0 Z"
     style="fill:none;stroke:#2d8ca8;stroke-width:1;stroke-linecap:butt;stroke-linejoin:miter;stroke-miterlimit:10;stroke-dasharray:none;stroke-opacity:1"
     id="path226"
     inkscape:connector-curvature="0" /></g><g
   id="g228"
   transform="matrix(0.922691,0,0,0.922691,959.04799,355.00115)"><path
     d="m 0,0 c 0,5.502 -4.46,9.963 -9.962,9.963 -5.503,0 -9.963,-4.461 -9.963,-9.963 0,-5.502 4.46,-9.963 9.963,-9.963 C -4.46,-9.963 0,-5.502 0,0 Z"
     style="fill:none;stroke:#2d8ca8;stroke-width:4.98099995;stroke-linecap:butt;stroke-linejoin:miter;stroke-miterlimit:10;stroke-dasharray:none;stroke-opacity:1"
     id="path230"
     inkscape:connector-curvature="0" /></g><g
   id="g232"
   transform="matrix(0.922691,0,0,0.922691,1042.8806,642.48428)"><path
     d="m 0,0 c -121.275,31.228 -244.905,-41.772 -276.133,-163.048 -31.227,-121.275 41.773,-244.905 163.048,-276.133 121.275,-31.226 244.905,41.774 276.132,163.048 22.854,88.744 -9.985,182.566 -83.193,237.687"
     style="fill:none;stroke:#2d8ca8;stroke-width:4.98099995;stroke-linecap:butt;stroke-linejoin:miter;stroke-miterlimit:10;stroke-dasharray:none;stroke-opacity:1"
     id="path234"
     inkscape:connector-curvature="0" /></g><g
   id="g236"
   transform="matrix(0.922691,0,0,0.922691,1023.7779,606.99397)"><path
     d="m 0,0 c 0,5.503 -4.46,9.963 -9.963,9.963 -5.502,0 -9.963,-4.46 -9.963,-9.963 0,-5.502 4.461,-9.963 9.963,-9.963 C -4.46,-9.963 0,-5.502 0,0"
     style="fill:#000000;fill-opacity:1;fill-rule:nonzero;stroke:none"
     id="path238"
     inkscape:connector-curvature="0" /></g><g
   id="g240"
   transform="matrix(0.922691,0,0,0.922691,1023.7779,606.99397)"><path
     d="m 0,0 c 0,5.503 -4.46,9.963 -9.963,9.963 -5.502,0 -9.963,-4.46 -9.963,-9.963 0,-5.502 4.461,-9.963 9.963,-9.963 C -4.46,-9.963 0,-5.502 0,0 Z"
     style="fill:none;stroke:#2d8ca8;stroke-width:1;stroke-linecap:butt;stroke-linejoin:miter;stroke-miterlimit:10;stroke-dasharray:none;stroke-opacity:1"
     id="path242"
     inkscape:connector-curvature="0" /></g><g
   id="g244"
   transform="matrix(0.922691,0,0,0.922691,1023.7779,606.99397)"><path
     d="m 0,0 c 0,5.503 -4.46,9.963 -9.963,9.963 -5.502,0 -9.963,-4.46 -9.963,-9.963 0,-5.502 4.461,-9.963 9.963,-9.963 C -4.46,-9.963 0,-5.502 0,0"
     style="fill:#2f8da9;fill-opacity:1;fill-rule:nonzero;stroke:none"
     id="path246"
     inkscape:connector-curvature="0" /></g><g
   id="g248"
   transform="matrix(0.922691,0,0,0.922691,1023.7779,606.99397)"><path
     d="m 0,0 c 0,5.503 -4.46,9.963 -9.963,9.963 -5.502,0 -9.963,-4.46 -9.963,-9.963 0,-5.502 4.461,-9.963 9.963,-9.963 C -4.46,-9.963 0,-5.502 0,0 Z"
     style="fill:none;stroke:#2d8ca8;stroke-width:4.98099995;stroke-linecap:butt;stroke-linejoin:miter;stroke-miterlimit:10;stroke-dasharray:none;stroke-opacity:1"
     id="path250"
     inkscape:connector-curvature="0" /></g><g
   id="g252"
   transform="matrix(0.922691,0,0,0.922691,917.19799,631.30569)"><path
     d="m 0,0 c 0,5.502 -4.46,9.963 -9.962,9.963 -5.503,0 -9.963,-4.461 -9.963,-9.963 0,-5.503 4.46,-9.963 9.963,-9.963 C -4.46,-9.963 0,-5.503 0,0"
     style="fill:#000000;fill-opacity:1;fill-rule:nonzero;stroke:none"
     id="path254"
     inkscape:connector-curvature="0" /></g><g
   id="g256"
   transform="matrix(0.922691,0,0,0.922691,917.19799,631.30569)"><path
     d="m 0,0 c 0,5.502 -4.46,9.963 -9.962,9.963 -5.503,0 -9.963,-4.461 -9.963,-9.963 0,-5.503 4.46,-9.963 9.963,-9.963 C -4.46,-9.963 0,-5.503 0,0 Z"
     style="fill:none;stroke:#2d8ca8;stroke-width:1;stroke-linecap:butt;stroke-linejoin:miter;stroke-miterlimit:10;stroke-dasharray:none;stroke-opacity:1"
     id="path258"
     inkscape:connector-curvature="0" /></g><g
   id="g260"
   transform="matrix(0.922691,0,0,0.922691,917.19799,631.30569)"><path
     d="m 0,0 c 0,5.502 -4.46,9.963 -9.962,9.963 -5.503,0 -9.963,-4.461 -9.963,-9.963 0,-5.503 4.46,-9.963 9.963,-9.963 C -4.46,-9.963 0,-5.503 0,0"
     style="fill:#2f8da9;fill-opacity:1;fill-rule:nonzero;stroke:none"
     id="path262"
     inkscape:connector-curvature="0" /></g><g
   id="g264"
   transform="matrix(0.922691,0,0,0.922691,917.19799,631.30569)"><path
     d="m 0,0 c 0,5.502 -4.46,9.963 -9.962,9.963 -5.503,0 -9.963,-4.461 -9.963,-9.963 0,-5.503 4.46,-9.963 9.963,-9.963 C -4.46,-9.963 0,-5.503 0,0 Z"
     style="fill:none;stroke:#2d8ca8;stroke-width:4.98099995;stroke-linecap:butt;stroke-linejoin:miter;stroke-miterlimit:10;stroke-dasharray:none;stroke-opacity:1"
     id="path266"
     inkscape:connector-curvature="0" /></g><g
   id="g268"
   transform="matrix(0.922691,0,0,0.922691,1190.5426,355.02192)"><path
     d="m 0,0 c 0,5.502 -4.46,9.962 -9.962,9.962 -5.503,0 -9.963,-4.46 -9.963,-9.962 0,-5.503 4.46,-9.963 9.963,-9.963 C -4.46,-9.963 0,-5.503 0,0"
     style="fill:#000000;fill-opacity:1;fill-rule:nonzero;stroke:none"
     id="path270"
     inkscape:connector-curvature="0" /></g><g
   id="g272"
   transform="matrix(0.922691,0,0,0.922691,1190.5426,355.02192)"><path
     d="m 0,0 c 0,5.502 -4.46,9.962 -9.962,9.962 -5.503,0 -9.963,-4.46 -9.963,-9.962 0,-5.503 4.46,-9.963 9.963,-9.963 C -4.46,-9.963 0,-5.503 0,0 Z"
     style="fill:none;stroke:#2d8ca8;stroke-width:1;stroke-linecap:butt;stroke-linejoin:miter;stroke-miterlimit:10;stroke-dasharray:none;stroke-opacity:1"
     id="path274"
     inkscape:connector-curvature="0" /></g><g
   id="g276"
   transform="matrix(0.922691,0,0,0.922691,1190.5426,355.02192)"><path
     d="m 0,0 c 0,5.502 -4.46,9.962 -9.962,9.962 -5.503,0 -9.963,-4.46 -9.963,-9.962 0,-5.503 4.46,-9.963 9.963,-9.963 C -4.46,-9.963 0,-5.503 0,0"
     style="fill:#2f8da9;fill-opacity:1;fill-rule:nonzero;stroke:none"
     id="path278"
     inkscape:connector-curvature="0" /></g><g
   id="g280"
   transform="matrix(0.922691,0,0,0.922691,1190.5426,355.02192)"><path
     d="m 0,0 c 0,5.502 -4.46,9.962 -9.962,9.962 -5.503,0 -9.963,-4.46 -9.963,-9.962 0,-5.503 4.46,-9.963 9.963,-9.963 C -4.46,-9.963 0,-5.503 0,0 Z"
     style="fill:none;stroke:#2d8ca8;stroke-width:4.98099995;stroke-linecap:butt;stroke-linejoin:miter;stroke-miterlimit:10;stroke-dasharray:none;stroke-opacity:1"
     id="path282"
     inkscape:connector-curvature="0" /></g><g
   id="g284"
   transform="matrix(0.922691,0,0,0.922691,1014.5851,606.99397)"><path
     d="m 0,0 c -100.028,-75.347 -120.036,-217.521 -44.689,-317.549 75.347,-100.028 217.521,-120.036 317.549,-44.689 100.029,75.347 120.037,217.521 44.689,317.55 C 262.415,28.51 168.587,61.332 79.847,38.462"
     style="fill:none;stroke:#2d8ca8;stroke-width:4.98099995;stroke-linecap:butt;stroke-linejoin:miter;stroke-miterlimit:10;stroke-dasharray:none;stroke-opacity:1"
     id="path286"
     inkscape:connector-curvature="0" /></g><g
   id="g288"
   transform="matrix(0.922691,0,0,0.922691,1033.8852,562.74273)"><path
     d="m 0,0 c 0,5.502 -4.46,9.963 -9.963,9.963 -5.502,0 -9.963,-4.461 -9.963,-9.963 0,-5.503 4.461,-9.963 9.963,-9.963 C -4.46,-9.963 0,-5.503 0,0"
     style="fill:#000000;fill-opacity:1;fill-rule:nonzero;stroke:none"
     id="path290"
     inkscape:connector-curvature="0" /></g><g
   id="g292"
   transform="matrix(0.922691,0,0,0.922691,1033.8852,562.74273)"><path
     d="m 0,0 c 0,5.502 -4.46,9.963 -9.963,9.963 -5.502,0 -9.963,-4.461 -9.963,-9.963 0,-5.503 4.461,-9.963 9.963,-9.963 C -4.46,-9.963 0,-5.503 0,0 Z"
     style="fill:none;stroke:#2d8ca8;stroke-width:1;stroke-linecap:butt;stroke-linejoin:miter;stroke-miterlimit:10;stroke-dasharray:none;stroke-opacity:1"
     id="path294"
     inkscape:connector-curvature="0" /></g><g
   id="g296"
   transform="matrix(0.922691,0,0,0.922691,1033.8852,562.74273)"><path
     d="m 0,0 c 0,5.502 -4.46,9.963 -9.963,9.963 -5.502,0 -9.963,-4.461 -9.963,-9.963 0,-5.503 4.461,-9.963 9.963,-9.963 C -4.46,-9.963 0,-5.503 0,0"
     style="fill:#2f8da9;fill-opacity:1;fill-rule:nonzero;stroke:none"
     id="path298"
     inkscape:connector-curvature="0" /></g><g
   id="g300"
   transform="matrix(0.922691,0,0,0.922691,1033.8852,562.74273)"><path
     d="m 0,0 c 0,5.502 -4.46,9.963 -9.963,9.963 -5.502,0 -9.963,-4.461 -9.963,-9.963 0,-5.503 4.461,-9.963 9.963,-9.963 C -4.46,-9.963 0,-5.503 0,0 Z"
     style="fill:none;stroke:#2d8ca8;stroke-width:4.98099995;stroke-linecap:butt;stroke-linejoin:miter;stroke-miterlimit:10;stroke-dasharray:none;stroke-opacity:1"
     id="path302"
     inkscape:connector-curvature="0" /></g><g
   id="g304"
   transform="matrix(0.922691,0,0,0.922691,948.42959,494.56803)"><path
     d="m 0,0 c 0,5.502 -4.46,9.963 -9.962,9.963 -5.503,0 -9.963,-4.461 -9.963,-9.963 0,-5.503 4.46,-9.963 9.963,-9.963 C -4.46,-9.963 0,-5.503 0,0"
     style="fill:#000000;fill-opacity:1;fill-rule:nonzero;stroke:none"
     id="path306"
     inkscape:connector-curvature="0" /></g><g
   id="g308"
   transform="matrix(0.922691,0,0,0.922691,948.42959,494.56803)"><path
     d="m 0,0 c 0,5.502 -4.46,9.963 -9.962,9.963 -5.503,0 -9.963,-4.461 -9.963,-9.963 0,-5.503 4.46,-9.963 9.963,-9.963 C -4.46,-9.963 0,-5.503 0,0 Z"
     style="fill:none;stroke:#2d8ca8;stroke-width:1;stroke-linecap:butt;stroke-linejoin:miter;stroke-miterlimit:10;stroke-dasharray:none;stroke-opacity:1"
     id="path310"
     inkscape:connector-curvature="0" /></g><g
   id="g312"
   transform="matrix(0.922691,0,0,0.922691,948.42959,494.56803)"><path
     d="m 0,0 c 0,5.502 -4.46,9.963 -9.962,9.963 -5.503,0 -9.963,-4.461 -9.963,-9.963 0,-5.503 4.46,-9.963 9.963,-9.963 C -4.46,-9.963 0,-5.503 0,0"
     style="fill:#2f8da9;fill-opacity:1;fill-rule:nonzero;stroke:none"
     id="path314"
     inkscape:connector-curvature="0" /></g><g
   id="g316"
   transform="matrix(0.922691,0,0,0.922691,948.42959,494.56803)"><path
     d="m 0,0 c 0,5.502 -4.46,9.963 -9.962,9.963 -5.503,0 -9.963,-4.461 -9.963,-9.963 0,-5.503 4.46,-9.963 9.963,-9.963 C -4.46,-9.963 0,-5.503 0,0 Z"
     style="fill:none;stroke:#2d8ca8;stroke-width:4.98099995;stroke-linecap:butt;stroke-linejoin:miter;stroke-miterlimit:10;stroke-dasharray:none;stroke-opacity:1"
     id="path318"
     inkscape:connector-curvature="0" /></g><g
   id="g320"
   transform="matrix(0.922691,0,0,0.922691,1334.8654,536.03784)"><path
     d="m 0,0 c 0,5.503 -4.461,9.963 -9.963,9.963 -5.503,0 -9.963,-4.46 -9.963,-9.963 0,-5.502 4.46,-9.963 9.963,-9.963 C -4.461,-9.963 0,-5.502 0,0"
     style="fill:#000000;fill-opacity:1;fill-rule:nonzero;stroke:none"
     id="path322"
     inkscape:connector-curvature="0" /></g><g
   id="g324"
   transform="matrix(0.922691,0,0,0.922691,1334.8654,536.03784)"><path
     d="m 0,0 c 0,5.503 -4.461,9.963 -9.963,9.963 -5.503,0 -9.963,-4.46 -9.963,-9.963 0,-5.502 4.46,-9.963 9.963,-9.963 C -4.461,-9.963 0,-5.502 0,0 Z"
     style="fill:none;stroke:#2d8ca8;stroke-width:1;stroke-linecap:butt;stroke-linejoin:miter;stroke-miterlimit:10;stroke-dasharray:none;stroke-opacity:1"
     id="path326"
     inkscape:connector-curvature="0" /></g><g
   id="g328"
   transform="matrix(0.922691,0,0,0.922691,1334.8654,536.03784)"><path
     d="m 0,0 c 0,5.503 -4.461,9.963 -9.963,9.963 -5.503,0 -9.963,-4.46 -9.963,-9.963 0,-5.502 4.46,-9.963 9.963,-9.963 C -4.461,-9.963 0,-5.502 0,0"
     style="fill:#2f8da9;fill-opacity:1;fill-rule:nonzero;stroke:none"
     id="path330"
     inkscape:connector-curvature="0" /></g><g
   id="g332"
   transform="matrix(0.922691,0,0,0.922691,1334.8654,536.03784)"><path
     d="m 0,0 c 0,5.503 -4.461,9.963 -9.963,9.963 -5.503,0 -9.963,-4.46 -9.963,-9.963 0,-5.502 4.46,-9.963 9.963,-9.963 C -4.461,-9.963 0,-5.502 0,0 Z"
     style="fill:none;stroke:#2d8ca8;stroke-width:4.98099995;stroke-linecap:butt;stroke-linejoin:miter;stroke-miterlimit:10;stroke-dasharray:none;stroke-opacity:1"
     id="path334"
     inkscape:connector-curvature="0" /></g><g
   id="g336"
   transform="matrix(0.922691,0,0,0.922691,1024.6925,562.74273)"><path
     d="m 0,0 c -3.451,-125.185 95.236,-229.467 220.421,-232.918 125.185,-3.451 229.467,95.236 232.918,220.421 C 456.79,112.688 358.103,216.97 232.918,220.42 141.313,222.948 57.152,170.05 19.709,86.408"
     style="fill:none;stroke:#2d8ca8;stroke-width:4.98099995;stroke-linecap:butt;stroke-linejoin:miter;stroke-miterlimit:10;stroke-dasharray:none;stroke-opacity:1"
     id="path338"
     inkscape:connector-curvature="0" /></g><g
   id="g340"
   transform="matrix(0.922691,0,0,0.922691,1074.7833,543.05711)"><path
     d="m 0,0 c 0,5.502 -4.46,9.962 -9.962,9.962 -5.503,0 -9.963,-4.46 -9.963,-9.962 0,-5.503 4.46,-9.963 9.963,-9.963 C -4.46,-9.963 0,-5.503 0,0"
     style="fill:#000000;fill-opacity:1;fill-rule:nonzero;stroke:none"
     id="path342"
     inkscape:connector-curvature="0" /></g><g
   id="g344"
   transform="matrix(0.922691,0,0,0.922691,1074.7833,543.05711)"><path
     d="m 0,0 c 0,5.502 -4.46,9.962 -9.962,9.962 -5.503,0 -9.963,-4.46 -9.963,-9.962 0,-5.503 4.46,-9.963 9.963,-9.963 C -4.46,-9.963 0,-5.503 0,0 Z"
     style="fill:none;stroke:#2d8ca8;stroke-width:1;stroke-linecap:butt;stroke-linejoin:miter;stroke-miterlimit:10;stroke-dasharray:none;stroke-opacity:1"
     id="path346"
     inkscape:connector-curvature="0" /></g><g
   id="g348"
   transform="matrix(0.922691,0,0,0.922691,1074.7833,543.05711)"><path
     d="m 0,0 c 0,5.502 -4.46,9.962 -9.962,9.962 -5.503,0 -9.963,-4.46 -9.963,-9.962 0,-5.503 4.46,-9.963 9.963,-9.963 C -4.46,-9.963 0,-5.503 0,0"
     style="fill:#2f8da9;fill-opacity:1;fill-rule:nonzero;stroke:none"
     id="path350"
     inkscape:connector-curvature="0" /></g><g
   id="g352"
   transform="matrix(0.922691,0,0,0.922691,1074.7833,543.05711)"><path
     d="m 0,0 c 0,5.502 -4.46,9.962 -9.962,9.962 -5.503,0 -9.963,-4.46 -9.963,-9.962 0,-5.503 4.46,-9.963 9.963,-9.963 C -4.46,-9.963 0,-5.503 0,0 Z"
     style="fill:none;stroke:#2d8ca8;stroke-width:4.98099995;stroke-linecap:butt;stroke-linejoin:miter;stroke-miterlimit:10;stroke-dasharray:none;stroke-opacity:1"
     id="path354"
     inkscape:connector-curvature="0" /></g><g
   id="g356"
   transform="matrix(0.922691,0,0,0.922691,1074.8048,433.73898)"><path
     d="m 0,0 c 0,5.503 -4.46,9.963 -9.962,9.963 -5.503,0 -9.963,-4.46 -9.963,-9.963 0,-5.502 4.46,-9.963 9.963,-9.963 C -4.46,-9.963 0,-5.502 0,0"
     style="fill:#2f8da9;fill-opacity:1;fill-rule:nonzero;stroke:none"
     id="path358"
     inkscape:connector-curvature="0" /></g><g
   id="g360"
   transform="matrix(0.922691,0,0,0.922691,1074.8048,433.73898)"><path
     d="m 0,0 c 0,5.503 -4.46,9.963 -9.962,9.963 -5.503,0 -9.963,-4.46 -9.963,-9.963 0,-5.502 4.46,-9.963 9.963,-9.963 C -4.46,-9.963 0,-5.502 0,0 Z"
     style="fill:none;stroke:#2d8ca8;stroke-width:1;stroke-linecap:butt;stroke-linejoin:miter;stroke-miterlimit:10;stroke-dasharray:none;stroke-opacity:1"
     id="path362"
     inkscape:connector-curvature="0" /></g><g
   id="g364"
   transform="matrix(0.922691,0,0,0.922691,1074.8048,433.73898)"><path
     d="m 0,0 c 0,5.503 -4.46,9.963 -9.962,9.963 -5.503,0 -9.963,-4.46 -9.963,-9.963 0,-5.502 4.46,-9.963 9.963,-9.963 C -4.46,-9.963 0,-5.502 0,0 Z"
     style="fill:none;stroke:#2d8ca8;stroke-width:4.98099995;stroke-linecap:butt;stroke-linejoin:miter;stroke-miterlimit:10;stroke-dasharray:none;stroke-opacity:1"
     id="path366"
     inkscape:connector-curvature="0" /></g><g
   id="g368"
   transform="matrix(0.922691,0,0,0.922691,1283.3163,761.72406)"><path
     d="m 0,0 c 0,5.502 -4.46,9.962 -9.962,9.962 -5.503,0 -9.963,-4.46 -9.963,-9.962 0,-5.503 4.46,-9.963 9.963,-9.963 C -4.46,-9.963 0,-5.503 0,0"
     style="fill:#2f8da9;fill-opacity:1;fill-rule:nonzero;stroke:none"
     id="path370"
     inkscape:connector-curvature="0" /></g><g
   id="g372"
   transform="matrix(0.922691,0,0,0.922691,1283.3163,761.72406)"><path
     d="m 0,0 c 0,5.502 -4.46,9.962 -9.962,9.962 -5.503,0 -9.963,-4.46 -9.963,-9.962 0,-5.503 4.46,-9.963 9.963,-9.963 C -4.46,-9.963 0,-5.503 0,0 Z"
     style="fill:none;stroke:#2d8ca8;stroke-width:1;stroke-linecap:butt;stroke-linejoin:miter;stroke-miterlimit:10;stroke-dasharray:none;stroke-opacity:1"
     id="path374"
     inkscape:connector-curvature="0" /></g><g
   id="g376"
   transform="matrix(0.922691,0,0,0.922691,1283.3163,761.72406)"><path
     d="m 0,0 c 0,5.502 -4.46,9.962 -9.962,9.962 -5.503,0 -9.963,-4.46 -9.963,-9.962 0,-5.503 4.46,-9.963 9.963,-9.963 C -4.46,-9.963 0,-5.503 0,0 Z"
     style="fill:none;stroke:#2d8ca8;stroke-width:4.98099995;stroke-linecap:butt;stroke-linejoin:miter;stroke-miterlimit:10;stroke-dasharray:none;stroke-opacity:1"
     id="path378"
     inkscape:connector-curvature="0" /></g><g
   id="g380"
   transform="matrix(0.922691,0,0,0.922691,1065.5909,543.05711)"><path
     d="m 0,0 c 95.722,-80.749 238.783,-68.609 319.53,27.112 80.749,95.723 68.61,238.784 -27.112,319.532 C 196.695,427.392 53.635,415.252 -27.113,319.53 -86.204,249.486 -97.318,150.706 -55.27,69.282"
     style="fill:none;stroke:#2d8ca8;stroke-width:4.98099995;stroke-linecap:butt;stroke-linejoin:miter;stroke-miterlimit:10;stroke-dasharray:none;stroke-opacity:1"
     id="path382"
     inkscape:connector-curvature="0" /></g><g
   id="g384"
   transform="matrix(0.922691,0,0,0.922691,1104.7643,574.11323)"><path
     d="M 0,0 C -5.19,34.417 -23.066,56.833 -55.467,69.547"
     style="fill:none;stroke:#2d8ca8;stroke-width:4.98099995;stroke-linecap:butt;stroke-linejoin:miter;stroke-miterlimit:10;stroke-dasharray:none;stroke-opacity:1"
     id="path386"
     inkscape:connector-curvature="0" /></g><g
   id="g388"
   transform="matrix(0.922691,0,0,0.922691,1039.4876,631.47775)"><path
     d="M 0,0 C -10.217,-33.125 -3.795,-61.253 19.784,-86.665"
     style="fill:none;stroke:#2d8ca8;stroke-width:4.98099995;stroke-linecap:butt;stroke-linejoin:miter;stroke-miterlimit:10;stroke-dasharray:none;stroke-opacity:1"
     id="path390"
     inkscape:connector-curvature="0" /></g><g
   id="g392"
   transform="matrix(0.922691,0,0,0.922691,1073.4353,551.51273)"><path
     d="M 0,0 C 23.573,25.418 29.987,53.548 19.761,86.672"
     style="fill:none;stroke:#2d8ca8;stroke-width:4.98099995;stroke-linecap:butt;stroke-linejoin:miter;stroke-miterlimit:10;stroke-dasharray:none;stroke-opacity:1"
     id="path394"
     inkscape:connector-curvature="0" /></g><g
   id="g396"
   transform="matrix(0.922691,0,0,0.922691,1077.5666,638.2862)"><path
     d="M 0,0 C -32.396,-12.722 -50.269,-35.142 -55.45,-69.558"
     style="fill:none;stroke:#2d8ca8;stroke-width:4.98099995;stroke-linecap:butt;stroke-linejoin:miter;stroke-miterlimit:10;stroke-dasharray:none;stroke-opacity:1"
     id="path398"
     inkscape:connector-curvature="0" /></g><g
   id="g400"
   transform="matrix(0.922691,0,0,0.922691,1036.1553,561.8849)"><path
     d="M 0,0 C 34.694,-2.596 60.541,9.854 80.137,38.603"
     style="fill:none;stroke:#2d8ca8;stroke-width:4.98099995;stroke-linecap:butt;stroke-linejoin:miter;stroke-miterlimit:10;stroke-dasharray:none;stroke-opacity:1"
     id="path402"
     inkscape:connector-curvature="0" /></g><g
   id="g404"
   transform="matrix(0.922691,0,0,0.922691,1106.5907,612.76715)"><path
     d="M 0,0 C -30.023,17.331 -58.874,17.327 -88.895,-0.009"
     style="fill:none;stroke:#2d8ca8;stroke-width:4.98099995;stroke-linecap:butt;stroke-linejoin:miter;stroke-miterlimit:10;stroke-dasharray:none;stroke-opacity:1"
     id="path406"
     inkscape:connector-curvature="0" /></g><g
   id="g408"
   transform="matrix(0.922691,0,0,0.922691,1021.0649,597.49229)"><path
     d="M 0,0 C 19.603,-28.744 45.452,-41.188 80.147,-38.585"
     style="fill:none;stroke:#2d8ca8;stroke-width:4.98099995;stroke-linecap:butt;stroke-linejoin:miter;stroke-miterlimit:10;stroke-dasharray:none;stroke-opacity:1"
     id="path410"
     inkscape:connector-curvature="0" /></g><path
   style="font-style:normal;font-variant:normal;font-weight:normal;font-stretch:normal;font-size:1384.2791748px;line-height:normal;font-family:'Myriad Pro';-inkscape-font-specification:MyriadPro-Regular;font-variant-ligatures:normal;font-variant-position:normal;font-variant-caps:normal;font-variant-numeric:normal;font-variant-alternates:normal;font-feature-settings:normal;text-indent:0;text-align:start;text-decoration:none;text-decoration-line:none;text-decoration-style:solid;text-decoration-color:#000000;letter-spacing:normal;word-spacing:normal;text-transform:none;writing-mode:lr-tb;direction:ltr;text-orientation:mixed;dominant-baseline:auto;baseline-shift:baseline;text-anchor:start;white-space:normal;shape-padding:0;opacity:1;vector-effect:none;fill:#1e64c8;fill-opacity:1;stroke:none;stroke-width:1.16780496;stroke-linecap:butt;stroke-linejoin:miter;stroke-miterlimit:4;stroke-dasharray:none;stroke-dashoffset:0;stroke-opacity:1"
   d="m 2106.4251,2241.9305 c -149.585,0 -266.6882,-48.6978 -351.3105,-146.0933 -84.195,-96.9203 -126.293,-232.3234 -126.293,-406.2099 0,-173.4114 42.098,-308.8145 126.293,-406.21 84.6223,-96.9203 201.7255,-145.3813 351.3105,-145.3813 68.3817,0 132.7039,9.9784 192.9653,29.9326 60.2614,20.4293 115.3943,50.3602 165.3985,89.7935 v 456.8085 h -339.772 v -118.3007 h 211.5556 v -285.772 c -28.6348,-18.5287 -60.9023,-32.3066 -96.8027,-41.3335 -35.9004,-8.5518 -76.716,-12.8276 -122.4463,-12.8276 -117.1037,0 -205.1452,36.3453 -264.1244,109.0356 -58.5519,72.6903 -87.8278,180.7747 -87.8277,324.2549 0,143.9552 29.2758,252.278 87.8277,324.9682 58.9792,72.6903 147.0207,109.0356 264.1244,109.0356 59.4066,0 116.0361,-11.4022 169.8867,-34.207 53.8506,-22.8048 104.7095,-56.7747 152.5767,-101.9092 v 153.2198 c -47.4399,33.2569 -99.3668,58.4369 -155.7817,75.5405 -55.9876,17.1036 -115.1818,25.6553 -177.5801,25.6553 z M 300.50725,2222.6897 540.26993,1158.7035 h 162.83495 l 203.8623,923.5942 201.94042,-923.5942 h 162.8335 l 240.4043,1063.9862 H 1380.724 L 1180.0668,1323.3256 978.76798,2222.6897 H 833.24308 L 632.58584,1323.3256 431.28702,2222.6897 Z"
   id="text1439"
   inkscape:connector-curvature="0" /><text
   transform="scale(0.93153644,-1.0734953)"
   style="font-variant:normal;font-weight:normal;font-stretch:normal;font-size:1049.7px;font-family:'Myriad Pro';-inkscape-font-specification:MyriadPro-Regular;writing-mode:lr-tb;fill:#2d8ca8;fill-opacity:1;fill-rule:nonzero;stroke:none;stroke-width:0.85952"
   id="text1443"
   x="1464.405"
   y="-219.01845"><tspan
     x="1464.405"
     y="-219.01845"
     id="tspan1441"
     style="stroke-width:0.85952">2</tspan></text>
<text
   transform="scale(0.93153644,-1.0734953)"
   style="font-variant:normal;font-weight:normal;font-stretch:normal;font-size:1049.7px;font-family:'Myriad Pro';-inkscape-font-specification:MyriadPro-Regular;writing-mode:lr-tb;fill:#2d8ca8;fill-opacity:1;fill-rule:nonzero;stroke:none;stroke-width:0.85952"
   id="text1447"
   x="2099.9915"
   y="-222.53143"><tspan
     x="2099.9915"
     y="-222.53143"
     id="tspan1445"
     style="stroke-width:0.85952">6</tspan></text>
</g></g></g></svg>
